G04 #@! TF.GenerationSoftware,KiCad,Pcbnew,(2017-08-16 revision 90873a101)-master*
G04 #@! TF.CreationDate,2017-12-27T22:47:25+02:00*
G04 #@! TF.ProjectId,esp-environment-sensors,6573702D656E7669726F6E6D656E742D,rev?*
G04 #@! TF.SameCoordinates,Original*
G04 #@! TF.FileFunction,Copper,L2,Bot,Signal*
G04 #@! TF.FilePolarity,Positive*
%FSLAX46Y46*%
G04 Gerber Fmt 4.6, Leading zero omitted, Abs format (unit mm)*
G04 Created by KiCad (PCBNEW (2017-08-16 revision 90873a101)-master) date Wed Dec 27 22:47:25 2017*
%MOMM*%
%LPD*%
G01*
G04 APERTURE LIST*
%ADD10R,1.700000X1.700000*%
%ADD11O,1.700000X1.700000*%
%ADD12R,2.400000X0.760000*%
%ADD13C,0.600000*%
%ADD14C,0.250000*%
%ADD15C,0.254000*%
G04 APERTURE END LIST*
D10*
X108000000Y-135000000D03*
D11*
X108000000Y-137540000D03*
D12*
X115190000Y-118540000D03*
X119000000Y-118540000D03*
X115190000Y-117270000D03*
X119000000Y-117270000D03*
X115190000Y-116000000D03*
X119000000Y-116000000D03*
X115190000Y-114730000D03*
X119000000Y-114730000D03*
X115190000Y-113460000D03*
X119000000Y-113460000D03*
D10*
X117920000Y-138000000D03*
D11*
X120460000Y-138000000D03*
X123000000Y-138000000D03*
D13*
X106425010Y-122800000D03*
X117200000Y-117450000D03*
X113500000Y-133900000D03*
X111100000Y-134000000D03*
X110825001Y-119800000D03*
X125800000Y-133800000D03*
X110400000Y-129600000D03*
X109068734Y-124670010D03*
X113200000Y-129400000D03*
X121899999Y-117699999D03*
X121200000Y-116000000D03*
X121600000Y-125800000D03*
X110200000Y-126025010D03*
X110200000Y-112800000D03*
X120576042Y-133284403D03*
X120000000Y-135000000D03*
X123600000Y-115600000D03*
X124600000Y-113800000D03*
X122200000Y-136600000D03*
X106800000Y-116400000D03*
X112000000Y-138200000D03*
X124600000Y-133800000D03*
X122800000Y-130600000D03*
X121600000Y-113000000D03*
X127174990Y-130800000D03*
X122800000Y-113000000D03*
D14*
X106725009Y-122500001D02*
X106425010Y-122800000D01*
X111955010Y-117270000D02*
X106725009Y-122500001D01*
X115190000Y-117270000D02*
X111955010Y-117270000D01*
X115190000Y-116000000D02*
X116010000Y-116000000D01*
X116010000Y-116000000D02*
X117200000Y-117190000D01*
X117200000Y-117190000D02*
X117200000Y-117450000D01*
X115190000Y-113460000D02*
X113740000Y-113460000D01*
X113740000Y-113460000D02*
X113664999Y-113535001D01*
X114370000Y-116000000D02*
X115190000Y-116000000D01*
X113664999Y-113535001D02*
X113664999Y-115294999D01*
X113664999Y-115294999D02*
X114370000Y-116000000D01*
X115190000Y-117270000D02*
X115190000Y-116000000D01*
X111100000Y-134000000D02*
X113400000Y-134000000D01*
X113400000Y-134000000D02*
X113500000Y-133900000D01*
X125500001Y-134099999D02*
X125800000Y-133800000D01*
X125174999Y-134425001D02*
X125500001Y-134099999D01*
X121588591Y-134425001D02*
X125174999Y-134425001D01*
X110400000Y-129600000D02*
X115159415Y-134359415D01*
X121523005Y-134359415D02*
X121588591Y-134425001D01*
X115159415Y-134359415D02*
X121523005Y-134359415D01*
X115190000Y-118540000D02*
X112085001Y-118540000D01*
X112085001Y-118540000D02*
X110825001Y-119800000D01*
X109492998Y-124670010D02*
X109068734Y-124670010D01*
X119000000Y-118540000D02*
X117550000Y-118540000D01*
X111419990Y-124670010D02*
X109492998Y-124670010D01*
X117550000Y-118540000D02*
X111419990Y-124670010D01*
X111249988Y-128000000D02*
X111800000Y-128000000D01*
X111800000Y-128000000D02*
X113200000Y-129400000D01*
X109574999Y-126025001D02*
X109574999Y-126325011D01*
X109574999Y-126325011D02*
X111249988Y-128000000D01*
X114305002Y-125400000D02*
X109900008Y-125400000D01*
X109900008Y-125400000D02*
X109574999Y-125725009D01*
X109574999Y-125725009D02*
X109574999Y-126025001D01*
X119000000Y-117270000D02*
X119820000Y-117270000D01*
X119820000Y-117270000D02*
X120525001Y-117975001D01*
X120525001Y-119180001D02*
X114305002Y-125400000D01*
X120525001Y-117975001D02*
X120525001Y-119180001D01*
X119000000Y-116000000D02*
X121200000Y-116000000D01*
X121899999Y-117699999D02*
X121899999Y-125500001D01*
X121899999Y-125500001D02*
X121600000Y-125800000D01*
X114316403Y-126025010D02*
X110624264Y-126025010D01*
X110624264Y-126025010D02*
X110200000Y-126025010D01*
X120975012Y-119366401D02*
X114316403Y-126025010D01*
X120975012Y-117149992D02*
X120975012Y-119366401D01*
X121825002Y-116300002D02*
X120975012Y-117149992D01*
X121825002Y-115499998D02*
X121825002Y-116300002D01*
X121055004Y-114730000D02*
X121825002Y-115499998D01*
X119000000Y-114730000D02*
X121055004Y-114730000D01*
X119000000Y-113460000D02*
X117550000Y-113460000D01*
X117550000Y-113460000D02*
X116844999Y-112754999D01*
X116844999Y-112754999D02*
X110245001Y-112754999D01*
X110245001Y-112754999D02*
X110200000Y-112800000D01*
X121000306Y-133284403D02*
X120576042Y-133284403D01*
X123600000Y-130684709D02*
X121000306Y-133284403D01*
X123600000Y-115600000D02*
X123600000Y-130684709D01*
X120000000Y-135000000D02*
X117920000Y-137080000D01*
X117920000Y-137080000D02*
X117920000Y-138000000D01*
X127800000Y-133000000D02*
X127800000Y-117000000D01*
X127800000Y-117000000D02*
X124600000Y-113800000D01*
X124499999Y-136300001D02*
X127800000Y-133000000D01*
X122200000Y-136600000D02*
X122499999Y-136300001D01*
X122499999Y-136300001D02*
X124499999Y-136300001D01*
X105800000Y-130514998D02*
X105800000Y-117400000D01*
X105800000Y-117400000D02*
X106800000Y-116400000D01*
X112000000Y-138200000D02*
X112000000Y-136714998D01*
X112000000Y-136714998D02*
X105800000Y-130514998D01*
X119909404Y-133909404D02*
X119500001Y-133500001D01*
X122375736Y-130600000D02*
X122800000Y-130600000D01*
X124175736Y-133800000D02*
X124066332Y-133909404D01*
X124066332Y-133909404D02*
X119909404Y-133909404D01*
X124600000Y-133800000D02*
X124175736Y-133800000D01*
X119500001Y-133500001D02*
X119500001Y-133475735D01*
X119500001Y-133475735D02*
X122375736Y-130600000D01*
X122800000Y-114200000D02*
X122800000Y-130600000D01*
X121600000Y-113000000D02*
X122800000Y-114200000D01*
X127174990Y-130375736D02*
X127174990Y-130800000D01*
X127174990Y-117374990D02*
X127174990Y-130375736D01*
X122800000Y-113000000D02*
X127174990Y-117374990D01*
D15*
G36*
X108273000Y-108200000D02*
X108282667Y-108248601D01*
X108310197Y-108289803D01*
X108351399Y-108317333D01*
X108400000Y-108327000D01*
X126600000Y-108327000D01*
X126648601Y-108317333D01*
X126689803Y-108289803D01*
X126717333Y-108248601D01*
X126727000Y-108200000D01*
X126727000Y-102910000D01*
X128090000Y-102910000D01*
X128090000Y-116215198D01*
X125535122Y-113660320D01*
X125535162Y-113614833D01*
X125393117Y-113271057D01*
X125130327Y-113007808D01*
X124786799Y-112865162D01*
X124414833Y-112864838D01*
X124071057Y-113006883D01*
X123976288Y-113101486D01*
X123735122Y-112860320D01*
X123735162Y-112814833D01*
X123593117Y-112471057D01*
X123330327Y-112207808D01*
X122986799Y-112065162D01*
X122614833Y-112064838D01*
X122271057Y-112206883D01*
X122200107Y-112277710D01*
X122130327Y-112207808D01*
X121786799Y-112065162D01*
X121414833Y-112064838D01*
X121071057Y-112206883D01*
X120807808Y-112469673D01*
X120711260Y-112702185D01*
X120657809Y-112622191D01*
X120447765Y-112481843D01*
X120200000Y-112432560D01*
X117800000Y-112432560D01*
X117630982Y-112466180D01*
X117382400Y-112217598D01*
X117135838Y-112052851D01*
X116844999Y-111994999D01*
X110699480Y-111994999D01*
X110386799Y-111865162D01*
X110014833Y-111864838D01*
X109671057Y-112006883D01*
X109407808Y-112269673D01*
X109265162Y-112613201D01*
X109264838Y-112985167D01*
X109406883Y-113328943D01*
X109669673Y-113592192D01*
X110013201Y-113734838D01*
X110385167Y-113735162D01*
X110728943Y-113593117D01*
X110807197Y-113514999D01*
X113355000Y-113514999D01*
X113355000Y-113587002D01*
X113513748Y-113587002D01*
X113355000Y-113745750D01*
X113355000Y-113966310D01*
X113403855Y-114084257D01*
X113391843Y-114102235D01*
X113342560Y-114350000D01*
X113342560Y-115110000D01*
X113391843Y-115357765D01*
X113403855Y-115375743D01*
X113355000Y-115493690D01*
X113355000Y-115714250D01*
X113513750Y-115873000D01*
X115063000Y-115873000D01*
X115063000Y-115853000D01*
X115317000Y-115853000D01*
X115317000Y-115873000D01*
X116866250Y-115873000D01*
X117025000Y-115714250D01*
X117025000Y-115493690D01*
X116976145Y-115375743D01*
X116988157Y-115357765D01*
X117037440Y-115110000D01*
X117037440Y-114350000D01*
X116988157Y-114102235D01*
X116976145Y-114084257D01*
X117012261Y-113997063D01*
X117012599Y-113997401D01*
X117198048Y-114121314D01*
X117152560Y-114350000D01*
X117152560Y-115110000D01*
X117201843Y-115357765D01*
X117206677Y-115365000D01*
X117201843Y-115372235D01*
X117152560Y-115620000D01*
X117152560Y-116380000D01*
X117201843Y-116627765D01*
X117206677Y-116635000D01*
X117201843Y-116642235D01*
X117152560Y-116890000D01*
X117152560Y-117650000D01*
X117198048Y-117878686D01*
X117012599Y-118002599D01*
X117007204Y-118007994D01*
X116988157Y-117912235D01*
X116976145Y-117894257D01*
X117025000Y-117776310D01*
X117025000Y-117555750D01*
X116866250Y-117397000D01*
X115317000Y-117397000D01*
X115317000Y-117417000D01*
X115063000Y-117417000D01*
X115063000Y-117397000D01*
X113513750Y-117397000D01*
X113355000Y-117555750D01*
X113355000Y-117776310D01*
X113356528Y-117780000D01*
X112085001Y-117780000D01*
X111794162Y-117837852D01*
X111547600Y-118002599D01*
X110685321Y-118864878D01*
X110639834Y-118864838D01*
X110296058Y-119006883D01*
X110032809Y-119269673D01*
X109890163Y-119613201D01*
X109889839Y-119985167D01*
X110031884Y-120328943D01*
X110294674Y-120592192D01*
X110638202Y-120734838D01*
X111010168Y-120735162D01*
X111353944Y-120593117D01*
X111617193Y-120330327D01*
X111759839Y-119986799D01*
X111759880Y-119939923D01*
X112399803Y-119300000D01*
X113480200Y-119300000D01*
X113532191Y-119377809D01*
X113742235Y-119518157D01*
X113990000Y-119567440D01*
X115447758Y-119567440D01*
X111105188Y-123910010D01*
X109631197Y-123910010D01*
X109599061Y-123877818D01*
X109255533Y-123735172D01*
X108883567Y-123734848D01*
X108539791Y-123876893D01*
X108276542Y-124139683D01*
X108133896Y-124483211D01*
X108133572Y-124855177D01*
X108275617Y-125198953D01*
X108538407Y-125462202D01*
X108842184Y-125588342D01*
X108814999Y-125725009D01*
X108814999Y-126325011D01*
X108872851Y-126615850D01*
X109037598Y-126862412D01*
X110712587Y-128537401D01*
X110959149Y-128702148D01*
X111249988Y-128760000D01*
X111485198Y-128760000D01*
X112264878Y-129539680D01*
X112264838Y-129585167D01*
X112406883Y-129928943D01*
X112669673Y-130192192D01*
X113013201Y-130334838D01*
X113385167Y-130335162D01*
X113728943Y-130193117D01*
X113992192Y-129930327D01*
X114134838Y-129586799D01*
X114135162Y-129214833D01*
X113993117Y-128871057D01*
X113730327Y-128607808D01*
X113386799Y-128465162D01*
X113339923Y-128465121D01*
X112337401Y-127462599D01*
X112090839Y-127297852D01*
X111800000Y-127240000D01*
X111564790Y-127240000D01*
X111109800Y-126785010D01*
X114316403Y-126785010D01*
X114607242Y-126727158D01*
X114853804Y-126562411D01*
X121139999Y-120276216D01*
X121139999Y-124978397D01*
X121071057Y-125006883D01*
X120807808Y-125269673D01*
X120665162Y-125613201D01*
X120664838Y-125985167D01*
X120806883Y-126328943D01*
X121069673Y-126592192D01*
X121413201Y-126734838D01*
X121785167Y-126735162D01*
X122040000Y-126629867D01*
X122040000Y-129927851D01*
X121838335Y-130062599D01*
X118962600Y-132938334D01*
X118797853Y-133184896D01*
X118740001Y-133475735D01*
X118740001Y-133500001D01*
X118759776Y-133599415D01*
X115474217Y-133599415D01*
X111335122Y-129460320D01*
X111335162Y-129414833D01*
X111193117Y-129071057D01*
X110930327Y-128807808D01*
X110586799Y-128665162D01*
X110214833Y-128664838D01*
X109871057Y-128806883D01*
X109607808Y-129069673D01*
X109465162Y-129413201D01*
X109464838Y-129785167D01*
X109606883Y-130128943D01*
X109869673Y-130392192D01*
X110213201Y-130534838D01*
X110260077Y-130534879D01*
X112901508Y-133176310D01*
X112837707Y-133240000D01*
X111662463Y-133240000D01*
X111630327Y-133207808D01*
X111286799Y-133065162D01*
X110914833Y-133064838D01*
X110571057Y-133206883D01*
X110307808Y-133469673D01*
X110167463Y-133807659D01*
X106560000Y-130200196D01*
X106560000Y-117714802D01*
X106939680Y-117335122D01*
X106985167Y-117335162D01*
X107328943Y-117193117D01*
X107592192Y-116930327D01*
X107734838Y-116586799D01*
X107735100Y-116285750D01*
X113355000Y-116285750D01*
X113355000Y-116506310D01*
X113408305Y-116635000D01*
X113355000Y-116763690D01*
X113355000Y-116984250D01*
X113513750Y-117143000D01*
X115063000Y-117143000D01*
X115063000Y-116127000D01*
X115317000Y-116127000D01*
X115317000Y-117143000D01*
X116866250Y-117143000D01*
X117025000Y-116984250D01*
X117025000Y-116763690D01*
X116971695Y-116635000D01*
X117025000Y-116506310D01*
X117025000Y-116285750D01*
X116866250Y-116127000D01*
X115317000Y-116127000D01*
X115063000Y-116127000D01*
X113513750Y-116127000D01*
X113355000Y-116285750D01*
X107735100Y-116285750D01*
X107735162Y-116214833D01*
X107593117Y-115871057D01*
X107330327Y-115607808D01*
X106986799Y-115465162D01*
X106614833Y-115464838D01*
X106271057Y-115606883D01*
X106007808Y-115869673D01*
X105865162Y-116213201D01*
X105865121Y-116260077D01*
X105262599Y-116862599D01*
X105097852Y-117109161D01*
X105040000Y-117400000D01*
X105040000Y-130514998D01*
X105097852Y-130805837D01*
X105262599Y-131052399D01*
X107872998Y-133662798D01*
X107872998Y-133673748D01*
X107714250Y-133515000D01*
X107023691Y-133515000D01*
X106790302Y-133611673D01*
X106611673Y-133790301D01*
X106515000Y-134023690D01*
X106515000Y-134714250D01*
X106673750Y-134873000D01*
X107873000Y-134873000D01*
X107873000Y-134853000D01*
X108127000Y-134853000D01*
X108127000Y-134873000D01*
X108147000Y-134873000D01*
X108147000Y-135127000D01*
X108127000Y-135127000D01*
X108127000Y-135147000D01*
X107873000Y-135147000D01*
X107873000Y-135127000D01*
X106673750Y-135127000D01*
X106515000Y-135285750D01*
X106515000Y-135976310D01*
X106611673Y-136209699D01*
X106790302Y-136388327D01*
X106964777Y-136460597D01*
X106920853Y-136489946D01*
X106598946Y-136971715D01*
X106485907Y-137540000D01*
X106598946Y-138108285D01*
X106920853Y-138590054D01*
X107402622Y-138911961D01*
X107970907Y-139025000D01*
X108029093Y-139025000D01*
X108597378Y-138911961D01*
X109079147Y-138590054D01*
X109401054Y-138108285D01*
X109514093Y-137540000D01*
X109401054Y-136971715D01*
X109079147Y-136489946D01*
X109035223Y-136460597D01*
X109209698Y-136388327D01*
X109388327Y-136209699D01*
X109485000Y-135976310D01*
X109485000Y-135285750D01*
X109326252Y-135127002D01*
X109337202Y-135127002D01*
X111240000Y-137029800D01*
X111240000Y-137637537D01*
X111207808Y-137669673D01*
X111065162Y-138013201D01*
X111064838Y-138385167D01*
X111206883Y-138728943D01*
X111469673Y-138992192D01*
X111813201Y-139134838D01*
X112185167Y-139135162D01*
X112528943Y-138993117D01*
X112792192Y-138730327D01*
X112934838Y-138386799D01*
X112935162Y-138014833D01*
X112793117Y-137671057D01*
X112760000Y-137637882D01*
X112760000Y-136714998D01*
X112702148Y-136424159D01*
X112537401Y-136177597D01*
X111292101Y-134932297D01*
X111628943Y-134793117D01*
X111662118Y-134760000D01*
X113132972Y-134760000D01*
X113313201Y-134834838D01*
X113685167Y-134835162D01*
X114028943Y-134693117D01*
X114223799Y-134498601D01*
X114622014Y-134896816D01*
X114868575Y-135061563D01*
X115159415Y-135119415D01*
X118805783Y-135119415D01*
X117422638Y-136502560D01*
X117070000Y-136502560D01*
X116822235Y-136551843D01*
X116612191Y-136692191D01*
X116471843Y-136902235D01*
X116422560Y-137150000D01*
X116422560Y-138850000D01*
X116471843Y-139097765D01*
X116600291Y-139290000D01*
X104710000Y-139290000D01*
X104710000Y-102910000D01*
X108273000Y-102910000D01*
X108273000Y-108200000D01*
X108273000Y-108200000D01*
G37*
X108273000Y-108200000D02*
X108282667Y-108248601D01*
X108310197Y-108289803D01*
X108351399Y-108317333D01*
X108400000Y-108327000D01*
X126600000Y-108327000D01*
X126648601Y-108317333D01*
X126689803Y-108289803D01*
X126717333Y-108248601D01*
X126727000Y-108200000D01*
X126727000Y-102910000D01*
X128090000Y-102910000D01*
X128090000Y-116215198D01*
X125535122Y-113660320D01*
X125535162Y-113614833D01*
X125393117Y-113271057D01*
X125130327Y-113007808D01*
X124786799Y-112865162D01*
X124414833Y-112864838D01*
X124071057Y-113006883D01*
X123976288Y-113101486D01*
X123735122Y-112860320D01*
X123735162Y-112814833D01*
X123593117Y-112471057D01*
X123330327Y-112207808D01*
X122986799Y-112065162D01*
X122614833Y-112064838D01*
X122271057Y-112206883D01*
X122200107Y-112277710D01*
X122130327Y-112207808D01*
X121786799Y-112065162D01*
X121414833Y-112064838D01*
X121071057Y-112206883D01*
X120807808Y-112469673D01*
X120711260Y-112702185D01*
X120657809Y-112622191D01*
X120447765Y-112481843D01*
X120200000Y-112432560D01*
X117800000Y-112432560D01*
X117630982Y-112466180D01*
X117382400Y-112217598D01*
X117135838Y-112052851D01*
X116844999Y-111994999D01*
X110699480Y-111994999D01*
X110386799Y-111865162D01*
X110014833Y-111864838D01*
X109671057Y-112006883D01*
X109407808Y-112269673D01*
X109265162Y-112613201D01*
X109264838Y-112985167D01*
X109406883Y-113328943D01*
X109669673Y-113592192D01*
X110013201Y-113734838D01*
X110385167Y-113735162D01*
X110728943Y-113593117D01*
X110807197Y-113514999D01*
X113355000Y-113514999D01*
X113355000Y-113587002D01*
X113513748Y-113587002D01*
X113355000Y-113745750D01*
X113355000Y-113966310D01*
X113403855Y-114084257D01*
X113391843Y-114102235D01*
X113342560Y-114350000D01*
X113342560Y-115110000D01*
X113391843Y-115357765D01*
X113403855Y-115375743D01*
X113355000Y-115493690D01*
X113355000Y-115714250D01*
X113513750Y-115873000D01*
X115063000Y-115873000D01*
X115063000Y-115853000D01*
X115317000Y-115853000D01*
X115317000Y-115873000D01*
X116866250Y-115873000D01*
X117025000Y-115714250D01*
X117025000Y-115493690D01*
X116976145Y-115375743D01*
X116988157Y-115357765D01*
X117037440Y-115110000D01*
X117037440Y-114350000D01*
X116988157Y-114102235D01*
X116976145Y-114084257D01*
X117012261Y-113997063D01*
X117012599Y-113997401D01*
X117198048Y-114121314D01*
X117152560Y-114350000D01*
X117152560Y-115110000D01*
X117201843Y-115357765D01*
X117206677Y-115365000D01*
X117201843Y-115372235D01*
X117152560Y-115620000D01*
X117152560Y-116380000D01*
X117201843Y-116627765D01*
X117206677Y-116635000D01*
X117201843Y-116642235D01*
X117152560Y-116890000D01*
X117152560Y-117650000D01*
X117198048Y-117878686D01*
X117012599Y-118002599D01*
X117007204Y-118007994D01*
X116988157Y-117912235D01*
X116976145Y-117894257D01*
X117025000Y-117776310D01*
X117025000Y-117555750D01*
X116866250Y-117397000D01*
X115317000Y-117397000D01*
X115317000Y-117417000D01*
X115063000Y-117417000D01*
X115063000Y-117397000D01*
X113513750Y-117397000D01*
X113355000Y-117555750D01*
X113355000Y-117776310D01*
X113356528Y-117780000D01*
X112085001Y-117780000D01*
X111794162Y-117837852D01*
X111547600Y-118002599D01*
X110685321Y-118864878D01*
X110639834Y-118864838D01*
X110296058Y-119006883D01*
X110032809Y-119269673D01*
X109890163Y-119613201D01*
X109889839Y-119985167D01*
X110031884Y-120328943D01*
X110294674Y-120592192D01*
X110638202Y-120734838D01*
X111010168Y-120735162D01*
X111353944Y-120593117D01*
X111617193Y-120330327D01*
X111759839Y-119986799D01*
X111759880Y-119939923D01*
X112399803Y-119300000D01*
X113480200Y-119300000D01*
X113532191Y-119377809D01*
X113742235Y-119518157D01*
X113990000Y-119567440D01*
X115447758Y-119567440D01*
X111105188Y-123910010D01*
X109631197Y-123910010D01*
X109599061Y-123877818D01*
X109255533Y-123735172D01*
X108883567Y-123734848D01*
X108539791Y-123876893D01*
X108276542Y-124139683D01*
X108133896Y-124483211D01*
X108133572Y-124855177D01*
X108275617Y-125198953D01*
X108538407Y-125462202D01*
X108842184Y-125588342D01*
X108814999Y-125725009D01*
X108814999Y-126325011D01*
X108872851Y-126615850D01*
X109037598Y-126862412D01*
X110712587Y-128537401D01*
X110959149Y-128702148D01*
X111249988Y-128760000D01*
X111485198Y-128760000D01*
X112264878Y-129539680D01*
X112264838Y-129585167D01*
X112406883Y-129928943D01*
X112669673Y-130192192D01*
X113013201Y-130334838D01*
X113385167Y-130335162D01*
X113728943Y-130193117D01*
X113992192Y-129930327D01*
X114134838Y-129586799D01*
X114135162Y-129214833D01*
X113993117Y-128871057D01*
X113730327Y-128607808D01*
X113386799Y-128465162D01*
X113339923Y-128465121D01*
X112337401Y-127462599D01*
X112090839Y-127297852D01*
X111800000Y-127240000D01*
X111564790Y-127240000D01*
X111109800Y-126785010D01*
X114316403Y-126785010D01*
X114607242Y-126727158D01*
X114853804Y-126562411D01*
X121139999Y-120276216D01*
X121139999Y-124978397D01*
X121071057Y-125006883D01*
X120807808Y-125269673D01*
X120665162Y-125613201D01*
X120664838Y-125985167D01*
X120806883Y-126328943D01*
X121069673Y-126592192D01*
X121413201Y-126734838D01*
X121785167Y-126735162D01*
X122040000Y-126629867D01*
X122040000Y-129927851D01*
X121838335Y-130062599D01*
X118962600Y-132938334D01*
X118797853Y-133184896D01*
X118740001Y-133475735D01*
X118740001Y-133500001D01*
X118759776Y-133599415D01*
X115474217Y-133599415D01*
X111335122Y-129460320D01*
X111335162Y-129414833D01*
X111193117Y-129071057D01*
X110930327Y-128807808D01*
X110586799Y-128665162D01*
X110214833Y-128664838D01*
X109871057Y-128806883D01*
X109607808Y-129069673D01*
X109465162Y-129413201D01*
X109464838Y-129785167D01*
X109606883Y-130128943D01*
X109869673Y-130392192D01*
X110213201Y-130534838D01*
X110260077Y-130534879D01*
X112901508Y-133176310D01*
X112837707Y-133240000D01*
X111662463Y-133240000D01*
X111630327Y-133207808D01*
X111286799Y-133065162D01*
X110914833Y-133064838D01*
X110571057Y-133206883D01*
X110307808Y-133469673D01*
X110167463Y-133807659D01*
X106560000Y-130200196D01*
X106560000Y-117714802D01*
X106939680Y-117335122D01*
X106985167Y-117335162D01*
X107328943Y-117193117D01*
X107592192Y-116930327D01*
X107734838Y-116586799D01*
X107735100Y-116285750D01*
X113355000Y-116285750D01*
X113355000Y-116506310D01*
X113408305Y-116635000D01*
X113355000Y-116763690D01*
X113355000Y-116984250D01*
X113513750Y-117143000D01*
X115063000Y-117143000D01*
X115063000Y-116127000D01*
X115317000Y-116127000D01*
X115317000Y-117143000D01*
X116866250Y-117143000D01*
X117025000Y-116984250D01*
X117025000Y-116763690D01*
X116971695Y-116635000D01*
X117025000Y-116506310D01*
X117025000Y-116285750D01*
X116866250Y-116127000D01*
X115317000Y-116127000D01*
X115063000Y-116127000D01*
X113513750Y-116127000D01*
X113355000Y-116285750D01*
X107735100Y-116285750D01*
X107735162Y-116214833D01*
X107593117Y-115871057D01*
X107330327Y-115607808D01*
X106986799Y-115465162D01*
X106614833Y-115464838D01*
X106271057Y-115606883D01*
X106007808Y-115869673D01*
X105865162Y-116213201D01*
X105865121Y-116260077D01*
X105262599Y-116862599D01*
X105097852Y-117109161D01*
X105040000Y-117400000D01*
X105040000Y-130514998D01*
X105097852Y-130805837D01*
X105262599Y-131052399D01*
X107872998Y-133662798D01*
X107872998Y-133673748D01*
X107714250Y-133515000D01*
X107023691Y-133515000D01*
X106790302Y-133611673D01*
X106611673Y-133790301D01*
X106515000Y-134023690D01*
X106515000Y-134714250D01*
X106673750Y-134873000D01*
X107873000Y-134873000D01*
X107873000Y-134853000D01*
X108127000Y-134853000D01*
X108127000Y-134873000D01*
X108147000Y-134873000D01*
X108147000Y-135127000D01*
X108127000Y-135127000D01*
X108127000Y-135147000D01*
X107873000Y-135147000D01*
X107873000Y-135127000D01*
X106673750Y-135127000D01*
X106515000Y-135285750D01*
X106515000Y-135976310D01*
X106611673Y-136209699D01*
X106790302Y-136388327D01*
X106964777Y-136460597D01*
X106920853Y-136489946D01*
X106598946Y-136971715D01*
X106485907Y-137540000D01*
X106598946Y-138108285D01*
X106920853Y-138590054D01*
X107402622Y-138911961D01*
X107970907Y-139025000D01*
X108029093Y-139025000D01*
X108597378Y-138911961D01*
X109079147Y-138590054D01*
X109401054Y-138108285D01*
X109514093Y-137540000D01*
X109401054Y-136971715D01*
X109079147Y-136489946D01*
X109035223Y-136460597D01*
X109209698Y-136388327D01*
X109388327Y-136209699D01*
X109485000Y-135976310D01*
X109485000Y-135285750D01*
X109326252Y-135127002D01*
X109337202Y-135127002D01*
X111240000Y-137029800D01*
X111240000Y-137637537D01*
X111207808Y-137669673D01*
X111065162Y-138013201D01*
X111064838Y-138385167D01*
X111206883Y-138728943D01*
X111469673Y-138992192D01*
X111813201Y-139134838D01*
X112185167Y-139135162D01*
X112528943Y-138993117D01*
X112792192Y-138730327D01*
X112934838Y-138386799D01*
X112935162Y-138014833D01*
X112793117Y-137671057D01*
X112760000Y-137637882D01*
X112760000Y-136714998D01*
X112702148Y-136424159D01*
X112537401Y-136177597D01*
X111292101Y-134932297D01*
X111628943Y-134793117D01*
X111662118Y-134760000D01*
X113132972Y-134760000D01*
X113313201Y-134834838D01*
X113685167Y-134835162D01*
X114028943Y-134693117D01*
X114223799Y-134498601D01*
X114622014Y-134896816D01*
X114868575Y-135061563D01*
X115159415Y-135119415D01*
X118805783Y-135119415D01*
X117422638Y-136502560D01*
X117070000Y-136502560D01*
X116822235Y-136551843D01*
X116612191Y-136692191D01*
X116471843Y-136902235D01*
X116422560Y-137150000D01*
X116422560Y-138850000D01*
X116471843Y-139097765D01*
X116600291Y-139290000D01*
X104710000Y-139290000D01*
X104710000Y-102910000D01*
X108273000Y-102910000D01*
X108273000Y-108200000D01*
G36*
X128090000Y-139290000D02*
X123722608Y-139290000D01*
X123766924Y-139271645D01*
X124195183Y-138881358D01*
X124441486Y-138356892D01*
X124320819Y-138127000D01*
X123127000Y-138127000D01*
X123127000Y-138147000D01*
X122873000Y-138147000D01*
X122873000Y-138127000D01*
X122853000Y-138127000D01*
X122853000Y-137873000D01*
X122873000Y-137873000D01*
X122873000Y-137853000D01*
X123127000Y-137853000D01*
X123127000Y-137873000D01*
X124320819Y-137873000D01*
X124441486Y-137643108D01*
X124195183Y-137118642D01*
X124130837Y-137060001D01*
X124499999Y-137060001D01*
X124790838Y-137002149D01*
X125037400Y-136837402D01*
X128090000Y-133784802D01*
X128090000Y-139290000D01*
X128090000Y-139290000D01*
G37*
X128090000Y-139290000D02*
X123722608Y-139290000D01*
X123766924Y-139271645D01*
X124195183Y-138881358D01*
X124441486Y-138356892D01*
X124320819Y-138127000D01*
X123127000Y-138127000D01*
X123127000Y-138147000D01*
X122873000Y-138147000D01*
X122873000Y-138127000D01*
X122853000Y-138127000D01*
X122853000Y-137873000D01*
X122873000Y-137873000D01*
X122873000Y-137853000D01*
X123127000Y-137853000D01*
X123127000Y-137873000D01*
X124320819Y-137873000D01*
X124441486Y-137643108D01*
X124195183Y-137118642D01*
X124130837Y-137060001D01*
X124499999Y-137060001D01*
X124790838Y-137002149D01*
X125037400Y-136837402D01*
X128090000Y-133784802D01*
X128090000Y-139290000D01*
M02*
