  0
SECTION
  2
HEADER
  9
$ANGBASE
  50
0.0
  9
$ANGDIR
  70
  1
  9
$MEASUREMENT
  70
0
  0
ENDSEC
  0
SECTION
  2
TABLES
  0
TABLE
  2
LTYPE
  70
1
  0
LTYPE
  2
CONTINUOUS
  70
0
  3
Solid line
  72
65
  73
0
  40
0.0
  0
ENDTAB
  0
TABLE
  2
STYLE
  70
4
  0
STYLE
  2
KICAD
  70
0
  40
0
  41
1
  42
1
  50
0
  71
0
  3
isocp.shx
  0
STYLE
  2
KICADB
  70
0
  40
0
  41
1
  42
1
  50
0
  71
0
  3
isocp.shx
  0
STYLE
  2
KICADI
  70
0
  40
0
  41
1
  42
1
  50
15
  71
0
  3
isocp.shx
  0
STYLE
  2
KICADBI
  70
0
  40
0
  41
1
  42
1
  50
15
  71
0
  3
isocp.shx
  0
ENDTAB
  0
TABLE
  2
LAYER
  70
30
  0
LAYER
  2
BLACK
  70
0
  62
7
  6
CONTINUOUS
  0
LAYER
  2
GRAY1
  70
0
  62
251
  6
CONTINUOUS
  0
LAYER
  2
GRAY2
  70
0
  62
8
  6
CONTINUOUS
  0
LAYER
  2
GRAY3
  70
0
  62
9
  6
CONTINUOUS
  0
LAYER
  2
WHITE
  70
0
  62
7
  6
CONTINUOUS
  0
LAYER
  2
LYELLOW
  70
0
  62
51
  6
CONTINUOUS
  0
LAYER
  2
BLUE1
  70
0
  62
178
  6
CONTINUOUS
  0
LAYER
  2
GREEN1
  70
0
  62
98
  6
CONTINUOUS
  0
LAYER
  2
CYAN1
  70
0
  62
138
  6
CONTINUOUS
  0
LAYER
  2
RED1
  70
0
  62
18
  6
CONTINUOUS
  0
LAYER
  2
MAGENTA1
  70
0
  62
228
  6
CONTINUOUS
  0
LAYER
  2
BROWN1
  70
0
  62
58
  6
CONTINUOUS
  0
LAYER
  2
BLUE2
  70
0
  62
5
  6
CONTINUOUS
  0
LAYER
  2
GREEN2
  70
0
  62
3
  6
CONTINUOUS
  0
LAYER
  2
CYAN2
  70
0
  62
4
  6
CONTINUOUS
  0
LAYER
  2
RED2
  70
0
  62
1
  6
CONTINUOUS
  0
LAYER
  2
MAGENTA2
  70
0
  62
6
  6
CONTINUOUS
  0
LAYER
  2
BROWN2
  70
0
  62
54
  6
CONTINUOUS
  0
LAYER
  2
BLUE3
  70
0
  62
171
  6
CONTINUOUS
  0
LAYER
  2
GREEN3
  70
0
  62
91
  6
CONTINUOUS
  0
LAYER
  2
CYAN3
  70
0
  62
131
  6
CONTINUOUS
  0
LAYER
  2
RED3
  70
0
  62
11
  6
CONTINUOUS
  0
LAYER
  2
MAGENTA3
  70
0
  62
221
  6
CONTINUOUS
  0
LAYER
  2
YELLOW3
  70
0
  62
2
  6
CONTINUOUS
  0
LAYER
  2
BLUE4
  70
0
  62
5
  6
CONTINUOUS
  0
LAYER
  2
GREEN4
  70
0
  62
3
  6
CONTINUOUS
  0
LAYER
  2
CYAN4
  70
0
  62
4
  6
CONTINUOUS
  0
LAYER
  2
RED4
  70
0
  62
1
  6
CONTINUOUS
  0
LAYER
  2
MAGENTA4
  70
0
  62
6
  6
CONTINUOUS
  0
LAYER
  2
YELLOW4
  70
0
  62
2
  6
CONTINUOUS
  0
ENDTAB
  0
ENDSEC
  0
SECTION
  2
ENTITIES
0
LINE
8
BLACK
10
127.2
20
-139.05
11
126.7
21
-139.05
0
LINE
8
BLACK
10
126.7
20
-139.05
11
126.7
21
-138.15
0
LINE
8
BLACK
10
126.7
20
-138.15
11
127.2
21
-138.15
0
LINE
8
BLACK
10
127.2
20
-138.15
11
127.2
21
-139.05
0
LINE
8
BLACK
10
125.7
20
-139.05
11
125.2
21
-139.05
0
LINE
8
BLACK
10
125.2
20
-139.05
11
125.2
21
-138.15
0
LINE
8
BLACK
10
125.2
20
-138.15
11
125.7
21
-138.15
0
LINE
8
BLACK
10
125.7
20
-138.15
11
125.7
21
-139.05
0
LINE
8
BLACK
10
113.45
20
-138.5
11
112.55
21
-138.5
0
LINE
8
BLACK
10
112.55
20
-138.5
11
112.55
21
-138
0
LINE
8
BLACK
10
112.55
20
-138
11
113.45
21
-138
0
LINE
8
BLACK
10
113.45
20
-138
11
113.45
21
-138.5
0
LINE
8
BLACK
10
115.45
20
-138.5
11
114.55
21
-138.5
0
LINE
8
BLACK
10
114.55
20
-138.5
11
114.55
21
-138
0
LINE
8
BLACK
10
114.55
20
-138
11
115.45
21
-138
0
LINE
8
BLACK
10
115.45
20
-138
11
115.45
21
-138.5
0
LINE
8
BLACK
10
111.45
20
-138.5
11
110.55
21
-138.5
0
LINE
8
BLACK
10
110.55
20
-138.5
11
110.55
21
-138
0
LINE
8
BLACK
10
110.55
20
-138
11
111.45
21
-138
0
LINE
8
BLACK
10
111.45
20
-138
11
111.45
21
-138.5
0
LINE
8
BLACK
10
127.2
20
-137.45
11
126.7
21
-137.45
0
LINE
8
BLACK
10
126.7
20
-137.45
11
126.7
21
-136.55
0
LINE
8
BLACK
10
126.7
20
-136.55
11
127.2
21
-136.55
0
LINE
8
BLACK
10
127.2
20
-136.55
11
127.2
21
-137.45
0
LINE
8
BLACK
10
125.7
20
-137.45
11
125.2
21
-137.45
0
LINE
8
BLACK
10
125.2
20
-137.45
11
125.2
21
-136.55
0
LINE
8
BLACK
10
125.2
20
-136.55
11
125.7
21
-136.55
0
LINE
8
BLACK
10
125.7
20
-136.55
11
125.7
21
-137.45
0
LINE
8
BLACK
10
111.45
20
-137
11
110.55
21
-137
0
LINE
8
BLACK
10
110.55
20
-137
11
110.55
21
-136.5
0
LINE
8
BLACK
10
110.55
20
-136.5
11
111.45
21
-136.5
0
LINE
8
BLACK
10
111.45
20
-136.5
11
111.45
21
-137
0
LINE
8
BLACK
10
115.45
20
-137
11
114.55
21
-137
0
LINE
8
BLACK
10
114.55
20
-137
11
114.55
21
-136.5
0
LINE
8
BLACK
10
114.55
20
-136.5
11
115.45
21
-136.5
0
LINE
8
BLACK
10
115.45
20
-136.5
11
115.45
21
-137
0
LINE
8
BLACK
10
113.45
20
-137
11
112.55
21
-137
0
LINE
8
BLACK
10
112.55
20
-137
11
112.55
21
-136.5
0
LINE
8
BLACK
10
112.55
20
-136.5
11
113.45
21
-136.5
0
LINE
8
BLACK
10
113.45
20
-136.5
11
113.45
21
-137
0
LINE
8
BLACK
10
124.65
20
-135.375
11
123.85
21
-135.375
0
LINE
8
BLACK
10
123.85
20
-135.375
11
123.85
21
-134.625
0
LINE
8
BLACK
10
123.85
20
-134.625
11
124.65
21
-134.625
0
LINE
8
BLACK
10
124.65
20
-134.625
11
124.65
21
-135.375
0
LINE
8
BLACK
10
126.15
20
-135.375
11
125.35
21
-135.375
0
LINE
8
BLACK
10
125.35
20
-135.375
11
125.35
21
-134.625
0
LINE
8
BLACK
10
125.35
20
-134.625
11
126.15
21
-134.625
0
LINE
8
BLACK
10
126.15
20
-134.625
11
126.15
21
-135.375
0
LINE
8
BLACK
10
118.9
20
-135.375
11
118.1
21
-135.375
0
LINE
8
BLACK
10
118.1
20
-135.375
11
118.1
21
-134.625
0
LINE
8
BLACK
10
118.1
20
-134.625
11
118.9
21
-134.625
0
LINE
8
BLACK
10
118.9
20
-134.625
11
118.9
21
-135.375
0
LINE
8
BLACK
10
117.4
20
-135.375
11
116.6
21
-135.375
0
LINE
8
BLACK
10
116.6
20
-135.375
11
116.6
21
-134.625
0
LINE
8
BLACK
10
116.6
20
-134.625
11
117.4
21
-134.625
0
LINE
8
BLACK
10
117.4
20
-134.625
11
117.4
21
-135.375
0
LINE
8
BLACK
10
112.9
20
-135.175
11
112.1
21
-135.175
0
LINE
8
BLACK
10
112.1
20
-135.175
11
112.1
21
-134.425
0
LINE
8
BLACK
10
112.1
20
-134.425
11
112.9
21
-134.425
0
LINE
8
BLACK
10
112.9
20
-134.425
11
112.9
21
-135.175
0
LINE
8
BLACK
10
111.4
20
-135.175
11
110.6
21
-135.175
0
LINE
8
BLACK
10
110.6
20
-135.175
11
110.6
21
-134.425
0
LINE
8
BLACK
10
110.6
20
-134.425
11
111.4
21
-134.425
0
LINE
8
BLACK
10
111.4
20
-134.425
11
111.4
21
-135.175
0
LINE
8
BLACK
10
113.275
20
-133.63
11
112.625
21
-133.63
0
LINE
8
BLACK
10
112.625
20
-133.63
11
112.625
21
-132.57
0
LINE
8
BLACK
10
112.625
20
-132.57
11
113.275
21
-132.57
0
LINE
8
BLACK
10
113.275
20
-132.57
11
113.275
21
-133.63
0
LINE
8
BLACK
10
112.325
20
-133.63
11
111.675
21
-133.63
0
LINE
8
BLACK
10
111.675
20
-133.63
11
111.675
21
-132.57
0
LINE
8
BLACK
10
111.675
20
-132.57
11
112.325
21
-132.57
0
LINE
8
BLACK
10
112.325
20
-132.57
11
112.325
21
-133.63
0
LINE
8
BLACK
10
111.375
20
-133.63
11
110.725
21
-133.63
0
LINE
8
BLACK
10
110.725
20
-133.63
11
110.725
21
-132.57
0
LINE
8
BLACK
10
110.725
20
-132.57
11
111.375
21
-132.57
0
LINE
8
BLACK
10
111.375
20
-132.57
11
111.375
21
-133.63
0
LINE
8
BLACK
10
126.09
20
-132.9
11
124.59
21
-132.9
0
LINE
8
BLACK
10
124.59
20
-132.9
11
124.59
21
-130.4
0
LINE
8
BLACK
10
124.59
20
-130.4
11
126.09
21
-130.4
0
LINE
8
BLACK
10
126.09
20
-130.4
11
126.09
21
-132.9
0
LINE
8
BLACK
10
124.315
20
-132.825
11
123.685
21
-132.825
0
LINE
8
BLACK
10
123.685
20
-132.825
11
123.685
21
-132.375
0
LINE
8
BLACK
10
123.685
20
-132.375
11
124.315
21
-132.375
0
LINE
8
BLACK
10
124.315
20
-132.375
11
124.315
21
-132.825
0
LINE
8
BLACK
10
126.995
20
-132.825
11
126.365
21
-132.825
0
LINE
8
BLACK
10
126.365
20
-132.825
11
126.365
21
-132.375
0
LINE
8
BLACK
10
126.365
20
-132.375
11
126.995
21
-132.375
0
LINE
8
BLACK
10
126.995
20
-132.375
11
126.995
21
-132.825
0
LINE
8
BLACK
10
122.7
20
-132.8
11
120.7
21
-132.8
0
LINE
8
BLACK
10
120.7
20
-132.8
11
120.7
21
-131.2
0
LINE
8
BLACK
10
120.7
20
-131.2
11
122.7
21
-131.2
0
LINE
8
BLACK
10
122.7
20
-131.2
11
122.7
21
-132.8
0
LINE
8
BLACK
10
117.3
20
-132.8
11
115.3
21
-132.8
0
LINE
8
BLACK
10
115.3
20
-132.8
11
115.3
21
-131.2
0
LINE
8
BLACK
10
115.3
20
-131.2
11
117.3
21
-131.2
0
LINE
8
BLACK
10
117.3
20
-131.2
11
117.3
21
-132.8
0
LINE
8
BLACK
10
109.375
20
-132.15
11
108.625
21
-132.15
0
LINE
8
BLACK
10
108.625
20
-132.15
11
108.625
21
-131.35
0
LINE
8
BLACK
10
108.625
20
-131.35
11
109.375
21
-131.35
0
LINE
8
BLACK
10
109.375
20
-131.35
11
109.375
21
-132.15
0
LINE
8
BLACK
10
126.995
20
-131.875
11
126.365
21
-131.875
0
LINE
8
BLACK
10
126.365
20
-131.875
11
126.365
21
-131.425
0
LINE
8
BLACK
10
126.365
20
-131.425
11
126.995
21
-131.425
0
LINE
8
BLACK
10
126.995
20
-131.425
11
126.995
21
-131.875
0
LINE
8
BLACK
10
124.315
20
-131.875
11
123.685
21
-131.875
0
LINE
8
BLACK
10
123.685
20
-131.875
11
123.685
21
-131.425
0
LINE
8
BLACK
10
123.685
20
-131.425
11
124.315
21
-131.425
0
LINE
8
BLACK
10
124.315
20
-131.425
11
124.315
21
-131.875
0
LINE
8
BLACK
10
113.275
20
-131.43
11
112.625
21
-131.43
0
LINE
8
BLACK
10
112.625
20
-131.43
11
112.625
21
-130.37
0
LINE
8
BLACK
10
112.625
20
-130.37
11
113.275
21
-130.37
0
LINE
8
BLACK
10
113.275
20
-130.37
11
113.275
21
-131.43
0
LINE
8
BLACK
10
111.375
20
-131.43
11
110.725
21
-131.43
0
LINE
8
BLACK
10
110.725
20
-131.43
11
110.725
21
-130.37
0
LINE
8
BLACK
10
110.725
20
-130.37
11
111.375
21
-130.37
0
LINE
8
BLACK
10
111.375
20
-130.37
11
111.375
21
-131.43
0
LINE
8
BLACK
10
126.995
20
-130.925
11
126.365
21
-130.925
0
LINE
8
BLACK
10
126.365
20
-130.925
11
126.365
21
-130.475
0
LINE
8
BLACK
10
126.365
20
-130.475
11
126.995
21
-130.475
0
LINE
8
BLACK
10
126.995
20
-130.475
11
126.995
21
-130.925
0
LINE
8
BLACK
10
124.315
20
-130.925
11
123.685
21
-130.925
0
LINE
8
BLACK
10
123.685
20
-130.925
11
123.685
21
-130.475
0
LINE
8
BLACK
10
123.685
20
-130.475
11
124.315
21
-130.475
0
LINE
8
BLACK
10
124.315
20
-130.475
11
124.315
21
-130.925
0
LINE
8
BLACK
10
109.375
20
-130.65
11
108.625
21
-130.65
0
LINE
8
BLACK
10
108.625
20
-130.65
11
108.625
21
-129.85
0
LINE
8
BLACK
10
108.625
20
-129.85
11
109.375
21
-129.85
0
LINE
8
BLACK
10
109.375
20
-129.85
11
109.375
21
-130.65
0
LINE
8
BLACK
10
126.6
20
-129.25
11
126.1
21
-129.25
0
LINE
8
BLACK
10
126.1
20
-129.25
11
126.1
21
-128.35
0
LINE
8
BLACK
10
126.1
20
-128.35
11
126.6
21
-128.35
0
LINE
8
BLACK
10
126.6
20
-128.35
11
126.6
21
-129.25
0
LINE
8
BLACK
10
125.1
20
-129.25
11
124.6
21
-129.25
0
LINE
8
BLACK
10
124.6
20
-129.25
11
124.6
21
-128.35
0
LINE
8
BLACK
10
124.6
20
-128.35
11
125.1
21
-128.35
0
LINE
8
BLACK
10
125.1
20
-128.35
11
125.1
21
-129.25
0
LINE
8
BLACK
10
113.28
20
-126.556
11
113.4
21
-126.656
0
LINE
8
BLACK
10
113.4
20
-126.656
11
113.478
21
-126.791
0
LINE
8
BLACK
10
113.478
20
-126.791
11
113.505
21
-126.945
0
LINE
8
BLACK
10
113.505
20
-126.945
11
113.505
21
-128.555
0
LINE
8
BLACK
10
113.505
20
-128.555
11
113.478
21
-128.709
0
LINE
8
BLACK
10
113.478
20
-128.709
11
113.4
21
-128.844
0
LINE
8
BLACK
10
113.4
20
-128.844
11
113.28
21
-128.944
0
LINE
8
BLACK
10
113.28
20
-128.944
11
113.133
21
-128.998
0
LINE
8
BLACK
10
113.133
20
-128.998
11
112.977
21
-128.998
0
LINE
8
BLACK
10
112.977
20
-128.998
11
112.83
21
-128.944
0
LINE
8
BLACK
10
112.83
20
-128.944
11
112.71
21
-128.844
0
LINE
8
BLACK
10
112.71
20
-128.844
11
112.632
21
-128.709
0
LINE
8
BLACK
10
112.632
20
-128.709
11
112.605
21
-128.555
0
LINE
8
BLACK
10
112.605
20
-128.555
11
112.605
21
-126.945
0
LINE
8
BLACK
10
112.605
20
-126.945
11
112.632
21
-126.791
0
LINE
8
BLACK
10
112.632
20
-126.791
11
112.71
21
-126.656
0
LINE
8
BLACK
10
112.71
20
-126.656
11
112.83
21
-126.556
0
LINE
8
BLACK
10
112.83
20
-126.556
11
112.977
21
-126.502
0
LINE
8
BLACK
10
112.977
20
-126.502
11
113.133
21
-126.502
0
LINE
8
BLACK
10
113.133
20
-126.502
11
113.28
21
-126.556
0
LINE
8
BLACK
10
118.36
20
-126.556
11
118.48
21
-126.656
0
LINE
8
BLACK
10
118.48
20
-126.656
11
118.558
21
-126.791
0
LINE
8
BLACK
10
118.558
20
-126.791
11
118.585
21
-126.945
0
LINE
8
BLACK
10
118.585
20
-126.945
11
118.585
21
-128.555
0
LINE
8
BLACK
10
118.585
20
-128.555
11
118.558
21
-128.709
0
LINE
8
BLACK
10
118.558
20
-128.709
11
118.48
21
-128.844
0
LINE
8
BLACK
10
118.48
20
-128.844
11
118.36
21
-128.944
0
LINE
8
BLACK
10
118.36
20
-128.944
11
118.213
21
-128.998
0
LINE
8
BLACK
10
118.213
20
-128.998
11
118.057
21
-128.998
0
LINE
8
BLACK
10
118.057
20
-128.998
11
117.91
21
-128.944
0
LINE
8
BLACK
10
117.91
20
-128.944
11
117.79
21
-128.844
0
LINE
8
BLACK
10
117.79
20
-128.844
11
117.712
21
-128.709
0
LINE
8
BLACK
10
117.712
20
-128.709
11
117.685
21
-128.555
0
LINE
8
BLACK
10
117.685
20
-128.555
11
117.685
21
-126.945
0
LINE
8
BLACK
10
117.685
20
-126.945
11
117.712
21
-126.791
0
LINE
8
BLACK
10
117.712
20
-126.791
11
117.79
21
-126.656
0
LINE
8
BLACK
10
117.79
20
-126.656
11
117.91
21
-126.556
0
LINE
8
BLACK
10
117.91
20
-126.556
11
118.057
21
-126.502
0
LINE
8
BLACK
10
118.057
20
-126.502
11
118.213
21
-126.502
0
LINE
8
BLACK
10
118.213
20
-126.502
11
118.36
21
-126.556
0
LINE
8
BLACK
10
117.09
20
-126.556
11
117.21
21
-126.656
0
LINE
8
BLACK
10
117.21
20
-126.656
11
117.288
21
-126.791
0
LINE
8
BLACK
10
117.288
20
-126.791
11
117.315
21
-126.945
0
LINE
8
BLACK
10
117.315
20
-126.945
11
117.315
21
-128.555
0
LINE
8
BLACK
10
117.315
20
-128.555
11
117.288
21
-128.709
0
LINE
8
BLACK
10
117.288
20
-128.709
11
117.21
21
-128.844
0
LINE
8
BLACK
10
117.21
20
-128.844
11
117.09
21
-128.944
0
LINE
8
BLACK
10
117.09
20
-128.944
11
116.943
21
-128.998
0
LINE
8
BLACK
10
116.943
20
-128.998
11
116.787
21
-128.998
0
LINE
8
BLACK
10
116.787
20
-128.998
11
116.64
21
-128.944
0
LINE
8
BLACK
10
116.64
20
-128.944
11
116.52
21
-128.844
0
LINE
8
BLACK
10
116.52
20
-128.844
11
116.442
21
-128.709
0
LINE
8
BLACK
10
116.442
20
-128.709
11
116.415
21
-128.555
0
LINE
8
BLACK
10
116.415
20
-128.555
11
116.415
21
-126.945
0
LINE
8
BLACK
10
116.415
20
-126.945
11
116.442
21
-126.791
0
LINE
8
BLACK
10
116.442
20
-126.791
11
116.52
21
-126.656
0
LINE
8
BLACK
10
116.52
20
-126.656
11
116.64
21
-126.556
0
LINE
8
BLACK
10
116.64
20
-126.556
11
116.787
21
-126.502
0
LINE
8
BLACK
10
116.787
20
-126.502
11
116.943
21
-126.502
0
LINE
8
BLACK
10
116.943
20
-126.502
11
117.09
21
-126.556
0
LINE
8
BLACK
10
115.82
20
-126.556
11
115.94
21
-126.656
0
LINE
8
BLACK
10
115.94
20
-126.656
11
116.018
21
-126.791
0
LINE
8
BLACK
10
116.018
20
-126.791
11
116.045
21
-126.945
0
LINE
8
BLACK
10
116.045
20
-126.945
11
116.045
21
-128.555
0
LINE
8
BLACK
10
116.045
20
-128.555
11
116.018
21
-128.709
0
LINE
8
BLACK
10
116.018
20
-128.709
11
115.94
21
-128.844
0
LINE
8
BLACK
10
115.94
20
-128.844
11
115.82
21
-128.944
0
LINE
8
BLACK
10
115.82
20
-128.944
11
115.673
21
-128.998
0
LINE
8
BLACK
10
115.673
20
-128.998
11
115.517
21
-128.998
0
LINE
8
BLACK
10
115.517
20
-128.998
11
115.37
21
-128.944
0
LINE
8
BLACK
10
115.37
20
-128.944
11
115.25
21
-128.844
0
LINE
8
BLACK
10
115.25
20
-128.844
11
115.172
21
-128.709
0
LINE
8
BLACK
10
115.172
20
-128.709
11
115.145
21
-128.555
0
LINE
8
BLACK
10
115.145
20
-128.555
11
115.145
21
-126.945
0
LINE
8
BLACK
10
115.145
20
-126.945
11
115.172
21
-126.791
0
LINE
8
BLACK
10
115.172
20
-126.791
11
115.25
21
-126.656
0
LINE
8
BLACK
10
115.25
20
-126.656
11
115.37
21
-126.556
0
LINE
8
BLACK
10
115.37
20
-126.556
11
115.517
21
-126.502
0
LINE
8
BLACK
10
115.517
20
-126.502
11
115.673
21
-126.502
0
LINE
8
BLACK
10
115.673
20
-126.502
11
115.82
21
-126.556
0
LINE
8
BLACK
10
114.55
20
-126.556
11
114.67
21
-126.656
0
LINE
8
BLACK
10
114.67
20
-126.656
11
114.748
21
-126.791
0
LINE
8
BLACK
10
114.748
20
-126.791
11
114.775
21
-126.945
0
LINE
8
BLACK
10
114.775
20
-126.945
11
114.775
21
-128.555
0
LINE
8
BLACK
10
114.775
20
-128.555
11
114.748
21
-128.709
0
LINE
8
BLACK
10
114.748
20
-128.709
11
114.67
21
-128.844
0
LINE
8
BLACK
10
114.67
20
-128.844
11
114.55
21
-128.944
0
LINE
8
BLACK
10
114.55
20
-128.944
11
114.403
21
-128.998
0
LINE
8
BLACK
10
114.403
20
-128.998
11
114.247
21
-128.998
0
LINE
8
BLACK
10
114.247
20
-128.998
11
114.1
21
-128.944
0
LINE
8
BLACK
10
114.1
20
-128.944
11
113.98
21
-128.844
0
LINE
8
BLACK
10
113.98
20
-128.844
11
113.902
21
-128.709
0
LINE
8
BLACK
10
113.902
20
-128.709
11
113.875
21
-128.555
0
LINE
8
BLACK
10
113.875
20
-128.555
11
113.875
21
-126.945
0
LINE
8
BLACK
10
113.875
20
-126.945
11
113.902
21
-126.791
0
LINE
8
BLACK
10
113.902
20
-126.791
11
113.98
21
-126.656
0
LINE
8
BLACK
10
113.98
20
-126.656
11
114.1
21
-126.556
0
LINE
8
BLACK
10
114.1
20
-126.556
11
114.247
21
-126.502
0
LINE
8
BLACK
10
114.247
20
-126.502
11
114.403
21
-126.502
0
LINE
8
BLACK
10
114.403
20
-126.502
11
114.55
21
-126.556
0
LINE
8
BLACK
10
119.63
20
-126.556
11
119.75
21
-126.656
0
LINE
8
BLACK
10
119.75
20
-126.656
11
119.828
21
-126.791
0
LINE
8
BLACK
10
119.828
20
-126.791
11
119.855
21
-126.945
0
LINE
8
BLACK
10
119.855
20
-126.945
11
119.855
21
-128.555
0
LINE
8
BLACK
10
119.855
20
-128.555
11
119.828
21
-128.709
0
LINE
8
BLACK
10
119.828
20
-128.709
11
119.75
21
-128.844
0
LINE
8
BLACK
10
119.75
20
-128.844
11
119.63
21
-128.944
0
LINE
8
BLACK
10
119.63
20
-128.944
11
119.483
21
-128.998
0
LINE
8
BLACK
10
119.483
20
-128.998
11
119.327
21
-128.998
0
LINE
8
BLACK
10
119.327
20
-128.998
11
119.18
21
-128.944
0
LINE
8
BLACK
10
119.18
20
-128.944
11
119.06
21
-128.844
0
LINE
8
BLACK
10
119.06
20
-128.844
11
118.982
21
-128.709
0
LINE
8
BLACK
10
118.982
20
-128.709
11
118.955
21
-128.555
0
LINE
8
BLACK
10
118.955
20
-128.555
11
118.955
21
-126.945
0
LINE
8
BLACK
10
118.955
20
-126.945
11
118.982
21
-126.791
0
LINE
8
BLACK
10
118.982
20
-126.791
11
119.06
21
-126.656
0
LINE
8
BLACK
10
119.06
20
-126.656
11
119.18
21
-126.556
0
LINE
8
BLACK
10
119.18
20
-126.556
11
119.327
21
-126.502
0
LINE
8
BLACK
10
119.327
20
-126.502
11
119.483
21
-126.502
0
LINE
8
BLACK
10
119.483
20
-126.502
11
119.63
21
-126.556
0
LINE
8
BLACK
10
112.01
20
-126.556
11
112.13
21
-126.656
0
LINE
8
BLACK
10
112.13
20
-126.656
11
112.208
21
-126.791
0
LINE
8
BLACK
10
112.208
20
-126.791
11
112.235
21
-126.945
0
LINE
8
BLACK
10
112.235
20
-126.945
11
112.235
21
-128.555
0
LINE
8
BLACK
10
112.235
20
-128.555
11
112.208
21
-128.709
0
LINE
8
BLACK
10
112.208
20
-128.709
11
112.13
21
-128.844
0
LINE
8
BLACK
10
112.13
20
-128.844
11
112.01
21
-128.944
0
LINE
8
BLACK
10
112.01
20
-128.944
11
111.863
21
-128.998
0
LINE
8
BLACK
10
111.863
20
-128.998
11
111.707
21
-128.998
0
LINE
8
BLACK
10
111.707
20
-128.998
11
111.56
21
-128.944
0
LINE
8
BLACK
10
111.56
20
-128.944
11
111.44
21
-128.844
0
LINE
8
BLACK
10
111.44
20
-128.844
11
111.362
21
-128.709
0
LINE
8
BLACK
10
111.362
20
-128.709
11
111.335
21
-128.555
0
LINE
8
BLACK
10
111.335
20
-128.555
11
111.335
21
-126.945
0
LINE
8
BLACK
10
111.335
20
-126.945
11
111.362
21
-126.791
0
LINE
8
BLACK
10
111.362
20
-126.791
11
111.44
21
-126.656
0
LINE
8
BLACK
10
111.44
20
-126.656
11
111.56
21
-126.556
0
LINE
8
BLACK
10
111.56
20
-126.556
11
111.707
21
-126.502
0
LINE
8
BLACK
10
111.707
20
-126.502
11
111.863
21
-126.502
0
LINE
8
BLACK
10
111.863
20
-126.502
11
112.01
21
-126.556
0
LINE
8
BLACK
10
120.9
20
-126.556
11
121.02
21
-126.656
0
LINE
8
BLACK
10
121.02
20
-126.656
11
121.098
21
-126.791
0
LINE
8
BLACK
10
121.098
20
-126.791
11
121.125
21
-126.945
0
LINE
8
BLACK
10
121.125
20
-126.945
11
121.125
21
-128.555
0
LINE
8
BLACK
10
121.125
20
-128.555
11
121.098
21
-128.709
0
LINE
8
BLACK
10
121.098
20
-128.709
11
121.02
21
-128.844
0
LINE
8
BLACK
10
121.02
20
-128.844
11
120.9
21
-128.944
0
LINE
8
BLACK
10
120.9
20
-128.944
11
120.753
21
-128.998
0
LINE
8
BLACK
10
120.753
20
-128.998
11
120.597
21
-128.998
0
LINE
8
BLACK
10
120.597
20
-128.998
11
120.45
21
-128.944
0
LINE
8
BLACK
10
120.45
20
-128.944
11
120.33
21
-128.844
0
LINE
8
BLACK
10
120.33
20
-128.844
11
120.252
21
-128.709
0
LINE
8
BLACK
10
120.252
20
-128.709
11
120.225
21
-128.555
0
LINE
8
BLACK
10
120.225
20
-128.555
11
120.225
21
-126.945
0
LINE
8
BLACK
10
120.225
20
-126.945
11
120.252
21
-126.791
0
LINE
8
BLACK
10
120.252
20
-126.791
11
120.33
21
-126.656
0
LINE
8
BLACK
10
120.33
20
-126.656
11
120.45
21
-126.556
0
LINE
8
BLACK
10
120.45
20
-126.556
11
120.597
21
-126.502
0
LINE
8
BLACK
10
120.597
20
-126.502
11
120.753
21
-126.502
0
LINE
8
BLACK
10
120.753
20
-126.502
11
120.9
21
-126.556
0
LINE
8
BLACK
10
122.17
20
-126.556
11
122.29
21
-126.656
0
LINE
8
BLACK
10
122.29
20
-126.656
11
122.368
21
-126.791
0
LINE
8
BLACK
10
122.368
20
-126.791
11
122.395
21
-126.945
0
LINE
8
BLACK
10
122.395
20
-126.945
11
122.395
21
-128.555
0
LINE
8
BLACK
10
122.395
20
-128.555
11
122.368
21
-128.709
0
LINE
8
BLACK
10
122.368
20
-128.709
11
122.29
21
-128.844
0
LINE
8
BLACK
10
122.29
20
-128.844
11
122.17
21
-128.944
0
LINE
8
BLACK
10
122.17
20
-128.944
11
122.023
21
-128.998
0
LINE
8
BLACK
10
122.023
20
-128.998
11
121.867
21
-128.998
0
LINE
8
BLACK
10
121.867
20
-128.998
11
121.72
21
-128.944
0
LINE
8
BLACK
10
121.72
20
-128.944
11
121.6
21
-128.844
0
LINE
8
BLACK
10
121.6
20
-128.844
11
121.522
21
-128.709
0
LINE
8
BLACK
10
121.522
20
-128.709
11
121.495
21
-128.555
0
LINE
8
BLACK
10
121.495
20
-128.555
11
121.495
21
-126.945
0
LINE
8
BLACK
10
121.495
20
-126.945
11
121.522
21
-126.791
0
LINE
8
BLACK
10
121.522
20
-126.791
11
121.6
21
-126.656
0
LINE
8
BLACK
10
121.6
20
-126.656
11
121.72
21
-126.556
0
LINE
8
BLACK
10
121.72
20
-126.556
11
121.867
21
-126.502
0
LINE
8
BLACK
10
121.867
20
-126.502
11
122.023
21
-126.502
0
LINE
8
BLACK
10
122.023
20
-126.502
11
122.17
21
-126.556
0
LINE
8
BLACK
10
123.44
20
-126.556
11
123.56
21
-126.656
0
LINE
8
BLACK
10
123.56
20
-126.656
11
123.638
21
-126.791
0
LINE
8
BLACK
10
123.638
20
-126.791
11
123.665
21
-126.945
0
LINE
8
BLACK
10
123.665
20
-126.945
11
123.665
21
-128.555
0
LINE
8
BLACK
10
123.665
20
-128.555
11
123.638
21
-128.709
0
LINE
8
BLACK
10
123.638
20
-128.709
11
123.56
21
-128.844
0
LINE
8
BLACK
10
123.56
20
-128.844
11
123.44
21
-128.944
0
LINE
8
BLACK
10
123.44
20
-128.944
11
123.293
21
-128.998
0
LINE
8
BLACK
10
123.293
20
-128.998
11
123.137
21
-128.998
0
LINE
8
BLACK
10
123.137
20
-128.998
11
122.99
21
-128.944
0
LINE
8
BLACK
10
122.99
20
-128.944
11
122.87
21
-128.844
0
LINE
8
BLACK
10
122.87
20
-128.844
11
122.792
21
-128.709
0
LINE
8
BLACK
10
122.792
20
-128.709
11
122.765
21
-128.555
0
LINE
8
BLACK
10
122.765
20
-128.555
11
122.765
21
-126.945
0
LINE
8
BLACK
10
122.765
20
-126.945
11
122.792
21
-126.791
0
LINE
8
BLACK
10
122.792
20
-126.791
11
122.87
21
-126.656
0
LINE
8
BLACK
10
122.87
20
-126.656
11
122.99
21
-126.556
0
LINE
8
BLACK
10
122.99
20
-126.556
11
123.137
21
-126.502
0
LINE
8
BLACK
10
123.137
20
-126.502
11
123.293
21
-126.502
0
LINE
8
BLACK
10
123.293
20
-126.502
11
123.44
21
-126.556
0
LINE
8
BLACK
10
109.459
20
-125.88
11
109.594
21
-125.958
0
LINE
8
BLACK
10
109.594
20
-125.958
11
109.694
21
-126.078
0
LINE
8
BLACK
10
109.694
20
-126.078
11
109.748
21
-126.225
0
LINE
8
BLACK
10
109.748
20
-126.225
11
109.748
21
-126.381
0
LINE
8
BLACK
10
109.748
20
-126.381
11
109.694
21
-126.528
0
LINE
8
BLACK
10
109.694
20
-126.528
11
109.594
21
-126.648
0
LINE
8
BLACK
10
109.594
20
-126.648
11
109.459
21
-126.726
0
LINE
8
BLACK
10
109.459
20
-126.726
11
109.305
21
-126.753
0
LINE
8
BLACK
10
109.305
20
-126.753
11
107.695
21
-126.753
0
LINE
8
BLACK
10
107.695
20
-126.753
11
107.541
21
-126.726
0
LINE
8
BLACK
10
107.541
20
-126.726
11
107.406
21
-126.648
0
LINE
8
BLACK
10
107.406
20
-126.648
11
107.306
21
-126.528
0
LINE
8
BLACK
10
107.306
20
-126.528
11
107.252
21
-126.381
0
LINE
8
BLACK
10
107.252
20
-126.381
11
107.252
21
-126.225
0
LINE
8
BLACK
10
107.252
20
-126.225
11
107.306
21
-126.078
0
LINE
8
BLACK
10
107.306
20
-126.078
11
107.406
21
-125.958
0
LINE
8
BLACK
10
107.406
20
-125.958
11
107.541
21
-125.88
0
LINE
8
BLACK
10
107.541
20
-125.88
11
107.695
21
-125.853
0
LINE
8
BLACK
10
107.695
20
-125.853
11
109.305
21
-125.853
0
LINE
8
BLACK
10
109.305
20
-125.853
11
109.459
21
-125.88
0
LINE
8
BLACK
10
127.476
20
-125.88
11
127.611
21
-125.958
0
LINE
8
BLACK
10
127.611
20
-125.958
11
127.711
21
-126.078
0
LINE
8
BLACK
10
127.711
20
-126.078
11
127.765
21
-126.225
0
LINE
8
BLACK
10
127.765
20
-126.225
11
127.765
21
-126.381
0
LINE
8
BLACK
10
127.765
20
-126.381
11
127.711
21
-126.528
0
LINE
8
BLACK
10
127.711
20
-126.528
11
127.611
21
-126.648
0
LINE
8
BLACK
10
127.611
20
-126.648
11
127.476
21
-126.726
0
LINE
8
BLACK
10
127.476
20
-126.726
11
127.322
21
-126.753
0
LINE
8
BLACK
10
127.322
20
-126.753
11
125.712
21
-126.753
0
LINE
8
BLACK
10
125.712
20
-126.753
11
125.558
21
-126.726
0
LINE
8
BLACK
10
125.558
20
-126.726
11
125.423
21
-126.648
0
LINE
8
BLACK
10
125.423
20
-126.648
11
125.323
21
-126.528
0
LINE
8
BLACK
10
125.323
20
-126.528
11
125.269
21
-126.381
0
LINE
8
BLACK
10
125.269
20
-126.381
11
125.269
21
-126.225
0
LINE
8
BLACK
10
125.269
20
-126.225
11
125.323
21
-126.078
0
LINE
8
BLACK
10
125.323
20
-126.078
11
125.423
21
-125.958
0
LINE
8
BLACK
10
125.423
20
-125.958
11
125.558
21
-125.88
0
LINE
8
BLACK
10
125.558
20
-125.88
11
125.712
21
-125.853
0
LINE
8
BLACK
10
125.712
20
-125.853
11
127.322
21
-125.853
0
LINE
8
BLACK
10
127.322
20
-125.853
11
127.476
21
-125.88
0
LINE
8
BLACK
10
127.476
20
-124.61
11
127.611
21
-124.688
0
LINE
8
BLACK
10
127.611
20
-124.688
11
127.711
21
-124.808
0
LINE
8
BLACK
10
127.711
20
-124.808
11
127.765
21
-124.955
0
LINE
8
BLACK
10
127.765
20
-124.955
11
127.765
21
-125.111
0
LINE
8
BLACK
10
127.765
20
-125.111
11
127.711
21
-125.258
0
LINE
8
BLACK
10
127.711
20
-125.258
11
127.611
21
-125.378
0
LINE
8
BLACK
10
127.611
20
-125.378
11
127.476
21
-125.456
0
LINE
8
BLACK
10
127.476
20
-125.456
11
127.322
21
-125.483
0
LINE
8
BLACK
10
127.322
20
-125.483
11
125.712
21
-125.483
0
LINE
8
BLACK
10
125.712
20
-125.483
11
125.558
21
-125.456
0
LINE
8
BLACK
10
125.558
20
-125.456
11
125.423
21
-125.378
0
LINE
8
BLACK
10
125.423
20
-125.378
11
125.323
21
-125.258
0
LINE
8
BLACK
10
125.323
20
-125.258
11
125.269
21
-125.111
0
LINE
8
BLACK
10
125.269
20
-125.111
11
125.269
21
-124.955
0
LINE
8
BLACK
10
125.269
20
-124.955
11
125.323
21
-124.808
0
LINE
8
BLACK
10
125.323
20
-124.808
11
125.423
21
-124.688
0
LINE
8
BLACK
10
125.423
20
-124.688
11
125.558
21
-124.61
0
LINE
8
BLACK
10
125.558
20
-124.61
11
125.712
21
-124.583
0
LINE
8
BLACK
10
125.712
20
-124.583
11
127.322
21
-124.583
0
LINE
8
BLACK
10
127.322
20
-124.583
11
127.476
21
-124.61
0
LINE
8
BLACK
10
109.459
20
-124.61
11
109.594
21
-124.688
0
LINE
8
BLACK
10
109.594
20
-124.688
11
109.694
21
-124.808
0
LINE
8
BLACK
10
109.694
20
-124.808
11
109.748
21
-124.955
0
LINE
8
BLACK
10
109.748
20
-124.955
11
109.748
21
-125.111
0
LINE
8
BLACK
10
109.748
20
-125.111
11
109.694
21
-125.258
0
LINE
8
BLACK
10
109.694
20
-125.258
11
109.594
21
-125.378
0
LINE
8
BLACK
10
109.594
20
-125.378
11
109.459
21
-125.456
0
LINE
8
BLACK
10
109.459
20
-125.456
11
109.305
21
-125.483
0
LINE
8
BLACK
10
109.305
20
-125.483
11
107.695
21
-125.483
0
LINE
8
BLACK
10
107.695
20
-125.483
11
107.541
21
-125.456
0
LINE
8
BLACK
10
107.541
20
-125.456
11
107.406
21
-125.378
0
LINE
8
BLACK
10
107.406
20
-125.378
11
107.306
21
-125.258
0
LINE
8
BLACK
10
107.306
20
-125.258
11
107.252
21
-125.111
0
LINE
8
BLACK
10
107.252
20
-125.111
11
107.252
21
-124.955
0
LINE
8
BLACK
10
107.252
20
-124.955
11
107.306
21
-124.808
0
LINE
8
BLACK
10
107.306
20
-124.808
11
107.406
21
-124.688
0
LINE
8
BLACK
10
107.406
20
-124.688
11
107.541
21
-124.61
0
LINE
8
BLACK
10
107.541
20
-124.61
11
107.695
21
-124.583
0
LINE
8
BLACK
10
107.695
20
-124.583
11
109.305
21
-124.583
0
LINE
8
BLACK
10
109.305
20
-124.583
11
109.459
21
-124.61
0
LINE
8
BLACK
10
109.459
20
-123.34
11
109.594
21
-123.418
0
LINE
8
BLACK
10
109.594
20
-123.418
11
109.694
21
-123.538
0
LINE
8
BLACK
10
109.694
20
-123.538
11
109.748
21
-123.685
0
LINE
8
BLACK
10
109.748
20
-123.685
11
109.748
21
-123.841
0
LINE
8
BLACK
10
109.748
20
-123.841
11
109.694
21
-123.988
0
LINE
8
BLACK
10
109.694
20
-123.988
11
109.594
21
-124.108
0
LINE
8
BLACK
10
109.594
20
-124.108
11
109.459
21
-124.186
0
LINE
8
BLACK
10
109.459
20
-124.186
11
109.305
21
-124.213
0
LINE
8
BLACK
10
109.305
20
-124.213
11
107.695
21
-124.213
0
LINE
8
BLACK
10
107.695
20
-124.213
11
107.541
21
-124.186
0
LINE
8
BLACK
10
107.541
20
-124.186
11
107.406
21
-124.108
0
LINE
8
BLACK
10
107.406
20
-124.108
11
107.306
21
-123.988
0
LINE
8
BLACK
10
107.306
20
-123.988
11
107.252
21
-123.841
0
LINE
8
BLACK
10
107.252
20
-123.841
11
107.252
21
-123.685
0
LINE
8
BLACK
10
107.252
20
-123.685
11
107.306
21
-123.538
0
LINE
8
BLACK
10
107.306
20
-123.538
11
107.406
21
-123.418
0
LINE
8
BLACK
10
107.406
20
-123.418
11
107.541
21
-123.34
0
LINE
8
BLACK
10
107.541
20
-123.34
11
107.695
21
-123.313
0
LINE
8
BLACK
10
107.695
20
-123.313
11
109.305
21
-123.313
0
LINE
8
BLACK
10
109.305
20
-123.313
11
109.459
21
-123.34
0
LINE
8
BLACK
10
127.476
20
-123.34
11
127.611
21
-123.418
0
LINE
8
BLACK
10
127.611
20
-123.418
11
127.711
21
-123.538
0
LINE
8
BLACK
10
127.711
20
-123.538
11
127.765
21
-123.685
0
LINE
8
BLACK
10
127.765
20
-123.685
11
127.765
21
-123.841
0
LINE
8
BLACK
10
127.765
20
-123.841
11
127.711
21
-123.988
0
LINE
8
BLACK
10
127.711
20
-123.988
11
127.611
21
-124.108
0
LINE
8
BLACK
10
127.611
20
-124.108
11
127.476
21
-124.186
0
LINE
8
BLACK
10
127.476
20
-124.186
11
127.322
21
-124.213
0
LINE
8
BLACK
10
127.322
20
-124.213
11
125.712
21
-124.213
0
LINE
8
BLACK
10
125.712
20
-124.213
11
125.558
21
-124.186
0
LINE
8
BLACK
10
125.558
20
-124.186
11
125.423
21
-124.108
0
LINE
8
BLACK
10
125.423
20
-124.108
11
125.323
21
-123.988
0
LINE
8
BLACK
10
125.323
20
-123.988
11
125.269
21
-123.841
0
LINE
8
BLACK
10
125.269
20
-123.841
11
125.269
21
-123.685
0
LINE
8
BLACK
10
125.269
20
-123.685
11
125.323
21
-123.538
0
LINE
8
BLACK
10
125.323
20
-123.538
11
125.423
21
-123.418
0
LINE
8
BLACK
10
125.423
20
-123.418
11
125.558
21
-123.34
0
LINE
8
BLACK
10
125.558
20
-123.34
11
125.712
21
-123.313
0
LINE
8
BLACK
10
125.712
20
-123.313
11
127.322
21
-123.313
0
LINE
8
BLACK
10
127.322
20
-123.313
11
127.476
21
-123.34
0
LINE
8
BLACK
10
109.459
20
-122.07
11
109.594
21
-122.148
0
LINE
8
BLACK
10
109.594
20
-122.148
11
109.694
21
-122.268
0
LINE
8
BLACK
10
109.694
20
-122.268
11
109.748
21
-122.415
0
LINE
8
BLACK
10
109.748
20
-122.415
11
109.748
21
-122.571
0
LINE
8
BLACK
10
109.748
20
-122.571
11
109.694
21
-122.718
0
LINE
8
BLACK
10
109.694
20
-122.718
11
109.594
21
-122.838
0
LINE
8
BLACK
10
109.594
20
-122.838
11
109.459
21
-122.916
0
LINE
8
BLACK
10
109.459
20
-122.916
11
109.305
21
-122.943
0
LINE
8
BLACK
10
109.305
20
-122.943
11
107.695
21
-122.943
0
LINE
8
BLACK
10
107.695
20
-122.943
11
107.541
21
-122.916
0
LINE
8
BLACK
10
107.541
20
-122.916
11
107.406
21
-122.838
0
LINE
8
BLACK
10
107.406
20
-122.838
11
107.306
21
-122.718
0
LINE
8
BLACK
10
107.306
20
-122.718
11
107.252
21
-122.571
0
LINE
8
BLACK
10
107.252
20
-122.571
11
107.252
21
-122.415
0
LINE
8
BLACK
10
107.252
20
-122.415
11
107.306
21
-122.268
0
LINE
8
BLACK
10
107.306
20
-122.268
11
107.406
21
-122.148
0
LINE
8
BLACK
10
107.406
20
-122.148
11
107.541
21
-122.07
0
LINE
8
BLACK
10
107.541
20
-122.07
11
107.695
21
-122.043
0
LINE
8
BLACK
10
107.695
20
-122.043
11
109.305
21
-122.043
0
LINE
8
BLACK
10
109.305
20
-122.043
11
109.459
21
-122.07
0
LINE
8
BLACK
10
127.476
20
-122.07
11
127.611
21
-122.148
0
LINE
8
BLACK
10
127.611
20
-122.148
11
127.711
21
-122.268
0
LINE
8
BLACK
10
127.711
20
-122.268
11
127.765
21
-122.415
0
LINE
8
BLACK
10
127.765
20
-122.415
11
127.765
21
-122.571
0
LINE
8
BLACK
10
127.765
20
-122.571
11
127.711
21
-122.718
0
LINE
8
BLACK
10
127.711
20
-122.718
11
127.611
21
-122.838
0
LINE
8
BLACK
10
127.611
20
-122.838
11
127.476
21
-122.916
0
LINE
8
BLACK
10
127.476
20
-122.916
11
127.322
21
-122.943
0
LINE
8
BLACK
10
127.322
20
-122.943
11
125.712
21
-122.943
0
LINE
8
BLACK
10
125.712
20
-122.943
11
125.558
21
-122.916
0
LINE
8
BLACK
10
125.558
20
-122.916
11
125.423
21
-122.838
0
LINE
8
BLACK
10
125.423
20
-122.838
11
125.323
21
-122.718
0
LINE
8
BLACK
10
125.323
20
-122.718
11
125.269
21
-122.571
0
LINE
8
BLACK
10
125.269
20
-122.571
11
125.269
21
-122.415
0
LINE
8
BLACK
10
125.269
20
-122.415
11
125.323
21
-122.268
0
LINE
8
BLACK
10
125.323
20
-122.268
11
125.423
21
-122.148
0
LINE
8
BLACK
10
125.423
20
-122.148
11
125.558
21
-122.07
0
LINE
8
BLACK
10
125.558
20
-122.07
11
125.712
21
-122.043
0
LINE
8
BLACK
10
125.712
20
-122.043
11
127.322
21
-122.043
0
LINE
8
BLACK
10
127.322
20
-122.043
11
127.476
21
-122.07
0
LINE
8
BLACK
10
106.45
20
-122
11
105.55
21
-122
0
LINE
8
BLACK
10
105.55
20
-122
11
105.55
21
-121.5
0
LINE
8
BLACK
10
105.55
20
-121.5
11
106.45
21
-121.5
0
LINE
8
BLACK
10
106.45
20
-121.5
11
106.45
21
-122
0
LINE
8
BLACK
10
109.459
20
-120.8
11
109.594
21
-120.878
0
LINE
8
BLACK
10
109.594
20
-120.878
11
109.694
21
-120.998
0
LINE
8
BLACK
10
109.694
20
-120.998
11
109.748
21
-121.145
0
LINE
8
BLACK
10
109.748
20
-121.145
11
109.748
21
-121.301
0
LINE
8
BLACK
10
109.748
20
-121.301
11
109.694
21
-121.448
0
LINE
8
BLACK
10
109.694
20
-121.448
11
109.594
21
-121.568
0
LINE
8
BLACK
10
109.594
20
-121.568
11
109.459
21
-121.646
0
LINE
8
BLACK
10
109.459
20
-121.646
11
109.305
21
-121.673
0
LINE
8
BLACK
10
109.305
20
-121.673
11
107.695
21
-121.673
0
LINE
8
BLACK
10
107.695
20
-121.673
11
107.541
21
-121.646
0
LINE
8
BLACK
10
107.541
20
-121.646
11
107.406
21
-121.568
0
LINE
8
BLACK
10
107.406
20
-121.568
11
107.306
21
-121.448
0
LINE
8
BLACK
10
107.306
20
-121.448
11
107.252
21
-121.301
0
LINE
8
BLACK
10
107.252
20
-121.301
11
107.252
21
-121.145
0
LINE
8
BLACK
10
107.252
20
-121.145
11
107.306
21
-120.998
0
LINE
8
BLACK
10
107.306
20
-120.998
11
107.406
21
-120.878
0
LINE
8
BLACK
10
107.406
20
-120.878
11
107.541
21
-120.8
0
LINE
8
BLACK
10
107.541
20
-120.8
11
107.695
21
-120.773
0
LINE
8
BLACK
10
107.695
20
-120.773
11
109.305
21
-120.773
0
LINE
8
BLACK
10
109.305
20
-120.773
11
109.459
21
-120.8
0
LINE
8
BLACK
10
127.476
20
-120.8
11
127.611
21
-120.878
0
LINE
8
BLACK
10
127.611
20
-120.878
11
127.711
21
-120.998
0
LINE
8
BLACK
10
127.711
20
-120.998
11
127.765
21
-121.145
0
LINE
8
BLACK
10
127.765
20
-121.145
11
127.765
21
-121.301
0
LINE
8
BLACK
10
127.765
20
-121.301
11
127.711
21
-121.448
0
LINE
8
BLACK
10
127.711
20
-121.448
11
127.611
21
-121.568
0
LINE
8
BLACK
10
127.611
20
-121.568
11
127.476
21
-121.646
0
LINE
8
BLACK
10
127.476
20
-121.646
11
127.322
21
-121.673
0
LINE
8
BLACK
10
127.322
20
-121.673
11
125.712
21
-121.673
0
LINE
8
BLACK
10
125.712
20
-121.673
11
125.558
21
-121.646
0
LINE
8
BLACK
10
125.558
20
-121.646
11
125.423
21
-121.568
0
LINE
8
BLACK
10
125.423
20
-121.568
11
125.323
21
-121.448
0
LINE
8
BLACK
10
125.323
20
-121.448
11
125.269
21
-121.301
0
LINE
8
BLACK
10
125.269
20
-121.301
11
125.269
21
-121.145
0
LINE
8
BLACK
10
125.269
20
-121.145
11
125.323
21
-120.998
0
LINE
8
BLACK
10
125.323
20
-120.998
11
125.423
21
-120.878
0
LINE
8
BLACK
10
125.423
20
-120.878
11
125.558
21
-120.8
0
LINE
8
BLACK
10
125.558
20
-120.8
11
125.712
21
-120.773
0
LINE
8
BLACK
10
125.712
20
-120.773
11
127.322
21
-120.773
0
LINE
8
BLACK
10
127.322
20
-120.773
11
127.476
21
-120.8
0
LINE
8
BLACK
10
106.45
20
-120.5
11
105.55
21
-120.5
0
LINE
8
BLACK
10
105.55
20
-120.5
11
105.55
21
-120
0
LINE
8
BLACK
10
105.55
20
-120
11
106.45
21
-120
0
LINE
8
BLACK
10
106.45
20
-120
11
106.45
21
-120.5
0
LINE
8
BLACK
10
120.2
20
-120.45
11
114.2
21
-120.45
0
LINE
8
BLACK
10
114.2
20
-120.45
11
114.2
21
-114.45
0
LINE
8
BLACK
10
114.2
20
-114.45
11
120.2
21
-114.45
0
LINE
8
BLACK
10
120.2
20
-114.45
11
120.2
21
-120.45
0
LINE
8
BLACK
10
127.476
20
-119.53
11
127.611
21
-119.608
0
LINE
8
BLACK
10
127.611
20
-119.608
11
127.711
21
-119.728
0
LINE
8
BLACK
10
127.711
20
-119.728
11
127.765
21
-119.875
0
LINE
8
BLACK
10
127.765
20
-119.875
11
127.765
21
-120.031
0
LINE
8
BLACK
10
127.765
20
-120.031
11
127.711
21
-120.178
0
LINE
8
BLACK
10
127.711
20
-120.178
11
127.611
21
-120.298
0
LINE
8
BLACK
10
127.611
20
-120.298
11
127.476
21
-120.376
0
LINE
8
BLACK
10
127.476
20
-120.376
11
127.322
21
-120.403
0
LINE
8
BLACK
10
127.322
20
-120.403
11
125.712
21
-120.403
0
LINE
8
BLACK
10
125.712
20
-120.403
11
125.558
21
-120.376
0
LINE
8
BLACK
10
125.558
20
-120.376
11
125.423
21
-120.298
0
LINE
8
BLACK
10
125.423
20
-120.298
11
125.323
21
-120.178
0
LINE
8
BLACK
10
125.323
20
-120.178
11
125.269
21
-120.031
0
LINE
8
BLACK
10
125.269
20
-120.031
11
125.269
21
-119.875
0
LINE
8
BLACK
10
125.269
20
-119.875
11
125.323
21
-119.728
0
LINE
8
BLACK
10
125.323
20
-119.728
11
125.423
21
-119.608
0
LINE
8
BLACK
10
125.423
20
-119.608
11
125.558
21
-119.53
0
LINE
8
BLACK
10
125.558
20
-119.53
11
125.712
21
-119.503
0
LINE
8
BLACK
10
125.712
20
-119.503
11
127.322
21
-119.503
0
LINE
8
BLACK
10
127.322
20
-119.503
11
127.476
21
-119.53
0
LINE
8
BLACK
10
109.459
20
-119.53
11
109.594
21
-119.608
0
LINE
8
BLACK
10
109.594
20
-119.608
11
109.694
21
-119.728
0
LINE
8
BLACK
10
109.694
20
-119.728
11
109.748
21
-119.875
0
LINE
8
BLACK
10
109.748
20
-119.875
11
109.748
21
-120.031
0
LINE
8
BLACK
10
109.748
20
-120.031
11
109.694
21
-120.178
0
LINE
8
BLACK
10
109.694
20
-120.178
11
109.594
21
-120.298
0
LINE
8
BLACK
10
109.594
20
-120.298
11
109.459
21
-120.376
0
LINE
8
BLACK
10
109.459
20
-120.376
11
109.305
21
-120.403
0
LINE
8
BLACK
10
109.305
20
-120.403
11
107.695
21
-120.403
0
LINE
8
BLACK
10
107.695
20
-120.403
11
107.541
21
-120.376
0
LINE
8
BLACK
10
107.541
20
-120.376
11
107.406
21
-120.298
0
LINE
8
BLACK
10
107.406
20
-120.298
11
107.306
21
-120.178
0
LINE
8
BLACK
10
107.306
20
-120.178
11
107.252
21
-120.031
0
LINE
8
BLACK
10
107.252
20
-120.031
11
107.252
21
-119.875
0
LINE
8
BLACK
10
107.252
20
-119.875
11
107.306
21
-119.728
0
LINE
8
BLACK
10
107.306
20
-119.728
11
107.406
21
-119.608
0
LINE
8
BLACK
10
107.406
20
-119.608
11
107.541
21
-119.53
0
LINE
8
BLACK
10
107.541
20
-119.53
11
107.695
21
-119.503
0
LINE
8
BLACK
10
107.695
20
-119.503
11
109.305
21
-119.503
0
LINE
8
BLACK
10
109.305
20
-119.503
11
109.459
21
-119.53
0
LINE
8
BLACK
10
106.4
20
-119.15
11
105.6
21
-119.15
0
LINE
8
BLACK
10
105.6
20
-119.15
11
105.6
21
-118.55
0
LINE
8
BLACK
10
105.6
20
-118.55
11
106.4
21
-118.55
0
LINE
8
BLACK
10
106.4
20
-118.55
11
106.4
21
-119.15
0
LINE
8
BLACK
10
127.476
20
-118.26
11
127.611
21
-118.338
0
LINE
8
BLACK
10
127.611
20
-118.338
11
127.711
21
-118.458
0
LINE
8
BLACK
10
127.711
20
-118.458
11
127.765
21
-118.605
0
LINE
8
BLACK
10
127.765
20
-118.605
11
127.765
21
-118.761
0
LINE
8
BLACK
10
127.765
20
-118.761
11
127.711
21
-118.908
0
LINE
8
BLACK
10
127.711
20
-118.908
11
127.611
21
-119.028
0
LINE
8
BLACK
10
127.611
20
-119.028
11
127.476
21
-119.106
0
LINE
8
BLACK
10
127.476
20
-119.106
11
127.322
21
-119.133
0
LINE
8
BLACK
10
127.322
20
-119.133
11
125.712
21
-119.133
0
LINE
8
BLACK
10
125.712
20
-119.133
11
125.558
21
-119.106
0
LINE
8
BLACK
10
125.558
20
-119.106
11
125.423
21
-119.028
0
LINE
8
BLACK
10
125.423
20
-119.028
11
125.323
21
-118.908
0
LINE
8
BLACK
10
125.323
20
-118.908
11
125.269
21
-118.761
0
LINE
8
BLACK
10
125.269
20
-118.761
11
125.269
21
-118.605
0
LINE
8
BLACK
10
125.269
20
-118.605
11
125.323
21
-118.458
0
LINE
8
BLACK
10
125.323
20
-118.458
11
125.423
21
-118.338
0
LINE
8
BLACK
10
125.423
20
-118.338
11
125.558
21
-118.26
0
LINE
8
BLACK
10
125.558
20
-118.26
11
125.712
21
-118.233
0
LINE
8
BLACK
10
125.712
20
-118.233
11
127.322
21
-118.233
0
LINE
8
BLACK
10
127.322
20
-118.233
11
127.476
21
-118.26
0
LINE
8
BLACK
10
109.459
20
-118.26
11
109.594
21
-118.338
0
LINE
8
BLACK
10
109.594
20
-118.338
11
109.694
21
-118.458
0
LINE
8
BLACK
10
109.694
20
-118.458
11
109.748
21
-118.605
0
LINE
8
BLACK
10
109.748
20
-118.605
11
109.748
21
-118.761
0
LINE
8
BLACK
10
109.748
20
-118.761
11
109.694
21
-118.908
0
LINE
8
BLACK
10
109.694
20
-118.908
11
109.594
21
-119.028
0
LINE
8
BLACK
10
109.594
20
-119.028
11
109.459
21
-119.106
0
LINE
8
BLACK
10
109.459
20
-119.106
11
109.305
21
-119.133
0
LINE
8
BLACK
10
109.305
20
-119.133
11
107.695
21
-119.133
0
LINE
8
BLACK
10
107.695
20
-119.133
11
107.541
21
-119.106
0
LINE
8
BLACK
10
107.541
20
-119.106
11
107.406
21
-119.028
0
LINE
8
BLACK
10
107.406
20
-119.028
11
107.306
21
-118.908
0
LINE
8
BLACK
10
107.306
20
-118.908
11
107.252
21
-118.761
0
LINE
8
BLACK
10
107.252
20
-118.761
11
107.252
21
-118.605
0
LINE
8
BLACK
10
107.252
20
-118.605
11
107.306
21
-118.458
0
LINE
8
BLACK
10
107.306
20
-118.458
11
107.406
21
-118.338
0
LINE
8
BLACK
10
107.406
20
-118.338
11
107.541
21
-118.26
0
LINE
8
BLACK
10
107.541
20
-118.26
11
107.695
21
-118.233
0
LINE
8
BLACK
10
107.695
20
-118.233
11
109.305
21
-118.233
0
LINE
8
BLACK
10
109.305
20
-118.233
11
109.459
21
-118.26
0
LINE
8
BLACK
10
127.476
20
-116.99
11
127.611
21
-117.068
0
LINE
8
BLACK
10
127.611
20
-117.068
11
127.711
21
-117.188
0
LINE
8
BLACK
10
127.711
20
-117.188
11
127.765
21
-117.335
0
LINE
8
BLACK
10
127.765
20
-117.335
11
127.765
21
-117.491
0
LINE
8
BLACK
10
127.765
20
-117.491
11
127.711
21
-117.638
0
LINE
8
BLACK
10
127.711
20
-117.638
11
127.611
21
-117.758
0
LINE
8
BLACK
10
127.611
20
-117.758
11
127.476
21
-117.836
0
LINE
8
BLACK
10
127.476
20
-117.836
11
127.322
21
-117.863
0
LINE
8
BLACK
10
127.322
20
-117.863
11
125.712
21
-117.863
0
LINE
8
BLACK
10
125.712
20
-117.863
11
125.558
21
-117.836
0
LINE
8
BLACK
10
125.558
20
-117.836
11
125.423
21
-117.758
0
LINE
8
BLACK
10
125.423
20
-117.758
11
125.323
21
-117.638
0
LINE
8
BLACK
10
125.323
20
-117.638
11
125.269
21
-117.491
0
LINE
8
BLACK
10
125.269
20
-117.491
11
125.269
21
-117.335
0
LINE
8
BLACK
10
125.269
20
-117.335
11
125.323
21
-117.188
0
LINE
8
BLACK
10
125.323
20
-117.188
11
125.423
21
-117.068
0
LINE
8
BLACK
10
125.423
20
-117.068
11
125.558
21
-116.99
0
LINE
8
BLACK
10
125.558
20
-116.99
11
125.712
21
-116.963
0
LINE
8
BLACK
10
125.712
20
-116.963
11
127.322
21
-116.963
0
LINE
8
BLACK
10
127.322
20
-116.963
11
127.476
21
-116.99
0
LINE
8
BLACK
10
109.459
20
-116.99
11
109.594
21
-117.068
0
LINE
8
BLACK
10
109.594
20
-117.068
11
109.694
21
-117.188
0
LINE
8
BLACK
10
109.694
20
-117.188
11
109.748
21
-117.335
0
LINE
8
BLACK
10
109.748
20
-117.335
11
109.748
21
-117.491
0
LINE
8
BLACK
10
109.748
20
-117.491
11
109.694
21
-117.638
0
LINE
8
BLACK
10
109.694
20
-117.638
11
109.594
21
-117.758
0
LINE
8
BLACK
10
109.594
20
-117.758
11
109.459
21
-117.836
0
LINE
8
BLACK
10
109.459
20
-117.836
11
109.305
21
-117.863
0
LINE
8
BLACK
10
109.305
20
-117.863
11
107.695
21
-117.863
0
LINE
8
BLACK
10
107.695
20
-117.863
11
107.541
21
-117.836
0
LINE
8
BLACK
10
107.541
20
-117.836
11
107.406
21
-117.758
0
LINE
8
BLACK
10
107.406
20
-117.758
11
107.306
21
-117.638
0
LINE
8
BLACK
10
107.306
20
-117.638
11
107.252
21
-117.491
0
LINE
8
BLACK
10
107.252
20
-117.491
11
107.252
21
-117.335
0
LINE
8
BLACK
10
107.252
20
-117.335
11
107.306
21
-117.188
0
LINE
8
BLACK
10
107.306
20
-117.188
11
107.406
21
-117.068
0
LINE
8
BLACK
10
107.406
20
-117.068
11
107.541
21
-116.99
0
LINE
8
BLACK
10
107.541
20
-116.99
11
107.695
21
-116.963
0
LINE
8
BLACK
10
107.695
20
-116.963
11
109.305
21
-116.963
0
LINE
8
BLACK
10
109.305
20
-116.963
11
109.459
21
-116.99
0
LINE
8
BLACK
10
106.4
20
-117.45
11
105.6
21
-117.45
0
LINE
8
BLACK
10
105.6
20
-117.45
11
105.6
21
-116.85
0
LINE
8
BLACK
10
105.6
20
-116.85
11
106.4
21
-116.85
0
LINE
8
BLACK
10
106.4
20
-116.85
11
106.4
21
-117.45
0
LINE
8
BLACK
10
127.476
20
-115.72
11
127.611
21
-115.798
0
LINE
8
BLACK
10
127.611
20
-115.798
11
127.711
21
-115.918
0
LINE
8
BLACK
10
127.711
20
-115.918
11
127.765
21
-116.065
0
LINE
8
BLACK
10
127.765
20
-116.065
11
127.765
21
-116.221
0
LINE
8
BLACK
10
127.765
20
-116.221
11
127.711
21
-116.368
0
LINE
8
BLACK
10
127.711
20
-116.368
11
127.611
21
-116.488
0
LINE
8
BLACK
10
127.611
20
-116.488
11
127.476
21
-116.566
0
LINE
8
BLACK
10
127.476
20
-116.566
11
127.322
21
-116.593
0
LINE
8
BLACK
10
127.322
20
-116.593
11
125.712
21
-116.593
0
LINE
8
BLACK
10
125.712
20
-116.593
11
125.558
21
-116.566
0
LINE
8
BLACK
10
125.558
20
-116.566
11
125.423
21
-116.488
0
LINE
8
BLACK
10
125.423
20
-116.488
11
125.323
21
-116.368
0
LINE
8
BLACK
10
125.323
20
-116.368
11
125.269
21
-116.221
0
LINE
8
BLACK
10
125.269
20
-116.221
11
125.269
21
-116.065
0
LINE
8
BLACK
10
125.269
20
-116.065
11
125.323
21
-115.918
0
LINE
8
BLACK
10
125.323
20
-115.918
11
125.423
21
-115.798
0
LINE
8
BLACK
10
125.423
20
-115.798
11
125.558
21
-115.72
0
LINE
8
BLACK
10
125.558
20
-115.72
11
125.712
21
-115.693
0
LINE
8
BLACK
10
125.712
20
-115.693
11
127.322
21
-115.693
0
LINE
8
BLACK
10
127.322
20
-115.693
11
127.476
21
-115.72
0
LINE
8
BLACK
10
109.459
20
-115.72
11
109.594
21
-115.798
0
LINE
8
BLACK
10
109.594
20
-115.798
11
109.694
21
-115.918
0
LINE
8
BLACK
10
109.694
20
-115.918
11
109.748
21
-116.065
0
LINE
8
BLACK
10
109.748
20
-116.065
11
109.748
21
-116.221
0
LINE
8
BLACK
10
109.748
20
-116.221
11
109.694
21
-116.368
0
LINE
8
BLACK
10
109.694
20
-116.368
11
109.594
21
-116.488
0
LINE
8
BLACK
10
109.594
20
-116.488
11
109.459
21
-116.566
0
LINE
8
BLACK
10
109.459
20
-116.566
11
109.305
21
-116.593
0
LINE
8
BLACK
10
109.305
20
-116.593
11
107.695
21
-116.593
0
LINE
8
BLACK
10
107.695
20
-116.593
11
107.541
21
-116.566
0
LINE
8
BLACK
10
107.541
20
-116.566
11
107.406
21
-116.488
0
LINE
8
BLACK
10
107.406
20
-116.488
11
107.306
21
-116.368
0
LINE
8
BLACK
10
107.306
20
-116.368
11
107.252
21
-116.221
0
LINE
8
BLACK
10
107.252
20
-116.221
11
107.252
21
-116.065
0
LINE
8
BLACK
10
107.252
20
-116.065
11
107.306
21
-115.918
0
LINE
8
BLACK
10
107.306
20
-115.918
11
107.406
21
-115.798
0
LINE
8
BLACK
10
107.406
20
-115.798
11
107.541
21
-115.72
0
LINE
8
BLACK
10
107.541
20
-115.72
11
107.695
21
-115.693
0
LINE
8
BLACK
10
107.695
20
-115.693
11
109.305
21
-115.693
0
LINE
8
BLACK
10
109.305
20
-115.693
11
109.459
21
-115.72
0
LINE
8
BLACK
10
106.45
20
-116
11
105.55
21
-116
0
LINE
8
BLACK
10
105.55
20
-116
11
105.55
21
-115.5
0
LINE
8
BLACK
10
105.55
20
-115.5
11
106.45
21
-115.5
0
LINE
8
BLACK
10
106.45
20
-115.5
11
106.45
21
-116
0
LINE
8
BLACK
10
127.459
20
-114.45
11
127.594
21
-114.528
0
LINE
8
BLACK
10
127.594
20
-114.528
11
127.694
21
-114.648
0
LINE
8
BLACK
10
127.694
20
-114.648
11
127.748
21
-114.795
0
LINE
8
BLACK
10
127.748
20
-114.795
11
127.748
21
-114.951
0
LINE
8
BLACK
10
127.748
20
-114.951
11
127.694
21
-115.098
0
LINE
8
BLACK
10
127.694
20
-115.098
11
127.594
21
-115.218
0
LINE
8
BLACK
10
127.594
20
-115.218
11
127.459
21
-115.296
0
LINE
8
BLACK
10
127.459
20
-115.296
11
127.305
21
-115.323
0
LINE
8
BLACK
10
127.305
20
-115.323
11
125.695
21
-115.323
0
LINE
8
BLACK
10
125.695
20
-115.323
11
125.541
21
-115.296
0
LINE
8
BLACK
10
125.541
20
-115.296
11
125.406
21
-115.218
0
LINE
8
BLACK
10
125.406
20
-115.218
11
125.306
21
-115.098
0
LINE
8
BLACK
10
125.306
20
-115.098
11
125.252
21
-114.951
0
LINE
8
BLACK
10
125.252
20
-114.951
11
125.252
21
-114.795
0
LINE
8
BLACK
10
125.252
20
-114.795
11
125.306
21
-114.648
0
LINE
8
BLACK
10
125.306
20
-114.648
11
125.406
21
-114.528
0
LINE
8
BLACK
10
125.406
20
-114.528
11
125.541
21
-114.45
0
LINE
8
BLACK
10
125.541
20
-114.45
11
125.695
21
-114.423
0
LINE
8
BLACK
10
125.695
20
-114.423
11
127.305
21
-114.423
0
LINE
8
BLACK
10
127.305
20
-114.423
11
127.459
21
-114.45
0
LINE
8
BLACK
10
109.459
20
-114.45
11
109.594
21
-114.528
0
LINE
8
BLACK
10
109.594
20
-114.528
11
109.694
21
-114.648
0
LINE
8
BLACK
10
109.694
20
-114.648
11
109.748
21
-114.795
0
LINE
8
BLACK
10
109.748
20
-114.795
11
109.748
21
-114.951
0
LINE
8
BLACK
10
109.748
20
-114.951
11
109.694
21
-115.098
0
LINE
8
BLACK
10
109.694
20
-115.098
11
109.594
21
-115.218
0
LINE
8
BLACK
10
109.594
20
-115.218
11
109.459
21
-115.296
0
LINE
8
BLACK
10
109.459
20
-115.296
11
109.305
21
-115.323
0
LINE
8
BLACK
10
109.305
20
-115.323
11
107.695
21
-115.323
0
LINE
8
BLACK
10
107.695
20
-115.323
11
107.541
21
-115.296
0
LINE
8
BLACK
10
107.541
20
-115.296
11
107.406
21
-115.218
0
LINE
8
BLACK
10
107.406
20
-115.218
11
107.306
21
-115.098
0
LINE
8
BLACK
10
107.306
20
-115.098
11
107.252
21
-114.951
0
LINE
8
BLACK
10
107.252
20
-114.951
11
107.252
21
-114.795
0
LINE
8
BLACK
10
107.252
20
-114.795
11
107.306
21
-114.648
0
LINE
8
BLACK
10
107.306
20
-114.648
11
107.406
21
-114.528
0
LINE
8
BLACK
10
107.406
20
-114.528
11
107.541
21
-114.45
0
LINE
8
BLACK
10
107.541
20
-114.45
11
107.695
21
-114.423
0
LINE
8
BLACK
10
107.695
20
-114.423
11
109.305
21
-114.423
0
LINE
8
BLACK
10
109.305
20
-114.423
11
109.459
21
-114.45
0
LINE
8
BLACK
10
106.45
20
-114.5
11
105.55
21
-114.5
0
LINE
8
BLACK
10
105.55
20
-114.5
11
105.55
21
-114
0
LINE
8
BLACK
10
105.55
20
-114
11
106.45
21
-114
0
LINE
8
BLACK
10
106.45
20
-114
11
106.45
21
-114.5
0
LINE
8
BLACK
10
127.459
20
-113.18
11
127.594
21
-113.258
0
LINE
8
BLACK
10
127.594
20
-113.258
11
127.694
21
-113.378
0
LINE
8
BLACK
10
127.694
20
-113.378
11
127.748
21
-113.525
0
LINE
8
BLACK
10
127.748
20
-113.525
11
127.748
21
-113.681
0
LINE
8
BLACK
10
127.748
20
-113.681
11
127.694
21
-113.828
0
LINE
8
BLACK
10
127.694
20
-113.828
11
127.594
21
-113.948
0
LINE
8
BLACK
10
127.594
20
-113.948
11
127.459
21
-114.026
0
LINE
8
BLACK
10
127.459
20
-114.026
11
127.305
21
-114.053
0
LINE
8
BLACK
10
127.305
20
-114.053
11
125.695
21
-114.053
0
LINE
8
BLACK
10
125.695
20
-114.053
11
125.541
21
-114.026
0
LINE
8
BLACK
10
125.541
20
-114.026
11
125.406
21
-113.948
0
LINE
8
BLACK
10
125.406
20
-113.948
11
125.306
21
-113.828
0
LINE
8
BLACK
10
125.306
20
-113.828
11
125.252
21
-113.681
0
LINE
8
BLACK
10
125.252
20
-113.681
11
125.252
21
-113.525
0
LINE
8
BLACK
10
125.252
20
-113.525
11
125.306
21
-113.378
0
LINE
8
BLACK
10
125.306
20
-113.378
11
125.406
21
-113.258
0
LINE
8
BLACK
10
125.406
20
-113.258
11
125.541
21
-113.18
0
LINE
8
BLACK
10
125.541
20
-113.18
11
125.695
21
-113.153
0
LINE
8
BLACK
10
125.695
20
-113.153
11
127.305
21
-113.153
0
LINE
8
BLACK
10
127.305
20
-113.153
11
127.459
21
-113.18
0
LINE
8
BLACK
10
109.459
20
-113.18
11
109.594
21
-113.258
0
LINE
8
BLACK
10
109.594
20
-113.258
11
109.694
21
-113.378
0
LINE
8
BLACK
10
109.694
20
-113.378
11
109.748
21
-113.525
0
LINE
8
BLACK
10
109.748
20
-113.525
11
109.748
21
-113.681
0
LINE
8
BLACK
10
109.748
20
-113.681
11
109.694
21
-113.828
0
LINE
8
BLACK
10
109.694
20
-113.828
11
109.594
21
-113.948
0
LINE
8
BLACK
10
109.594
20
-113.948
11
109.459
21
-114.026
0
LINE
8
BLACK
10
109.459
20
-114.026
11
109.305
21
-114.053
0
LINE
8
BLACK
10
109.305
20
-114.053
11
107.695
21
-114.053
0
LINE
8
BLACK
10
107.695
20
-114.053
11
107.541
21
-114.026
0
LINE
8
BLACK
10
107.541
20
-114.026
11
107.406
21
-113.948
0
LINE
8
BLACK
10
107.406
20
-113.948
11
107.306
21
-113.828
0
LINE
8
BLACK
10
107.306
20
-113.828
11
107.252
21
-113.681
0
LINE
8
BLACK
10
107.252
20
-113.681
11
107.252
21
-113.525
0
LINE
8
BLACK
10
107.252
20
-113.525
11
107.306
21
-113.378
0
LINE
8
BLACK
10
107.306
20
-113.378
11
107.406
21
-113.258
0
LINE
8
BLACK
10
107.406
20
-113.258
11
107.541
21
-113.18
0
LINE
8
BLACK
10
107.541
20
-113.18
11
107.695
21
-113.153
0
LINE
8
BLACK
10
107.695
20
-113.153
11
109.305
21
-113.153
0
LINE
8
BLACK
10
109.305
20
-113.153
11
109.459
21
-113.18
0
LINE
8
BLACK
10
127.459
20
-111.91
11
127.594
21
-111.988
0
LINE
8
BLACK
10
127.594
20
-111.988
11
127.694
21
-112.108
0
LINE
8
BLACK
10
127.694
20
-112.108
11
127.748
21
-112.255
0
LINE
8
BLACK
10
127.748
20
-112.255
11
127.748
21
-112.411
0
LINE
8
BLACK
10
127.748
20
-112.411
11
127.694
21
-112.558
0
LINE
8
BLACK
10
127.694
20
-112.558
11
127.594
21
-112.678
0
LINE
8
BLACK
10
127.594
20
-112.678
11
127.459
21
-112.756
0
LINE
8
BLACK
10
127.459
20
-112.756
11
127.305
21
-112.783
0
LINE
8
BLACK
10
127.305
20
-112.783
11
125.695
21
-112.783
0
LINE
8
BLACK
10
125.695
20
-112.783
11
125.541
21
-112.756
0
LINE
8
BLACK
10
125.541
20
-112.756
11
125.406
21
-112.678
0
LINE
8
BLACK
10
125.406
20
-112.678
11
125.306
21
-112.558
0
LINE
8
BLACK
10
125.306
20
-112.558
11
125.252
21
-112.411
0
LINE
8
BLACK
10
125.252
20
-112.411
11
125.252
21
-112.255
0
LINE
8
BLACK
10
125.252
20
-112.255
11
125.306
21
-112.108
0
LINE
8
BLACK
10
125.306
20
-112.108
11
125.406
21
-111.988
0
LINE
8
BLACK
10
125.406
20
-111.988
11
125.541
21
-111.91
0
LINE
8
BLACK
10
125.541
20
-111.91
11
125.695
21
-111.883
0
LINE
8
BLACK
10
125.695
20
-111.883
11
127.305
21
-111.883
0
LINE
8
BLACK
10
127.305
20
-111.883
11
127.459
21
-111.91
0
LINE
8
BLACK
10
109.459
20
-111.91
11
109.594
21
-111.988
0
LINE
8
BLACK
10
109.594
20
-111.988
11
109.694
21
-112.108
0
LINE
8
BLACK
10
109.694
20
-112.108
11
109.748
21
-112.255
0
LINE
8
BLACK
10
109.748
20
-112.255
11
109.748
21
-112.411
0
LINE
8
BLACK
10
109.748
20
-112.411
11
109.694
21
-112.558
0
LINE
8
BLACK
10
109.694
20
-112.558
11
109.594
21
-112.678
0
LINE
8
BLACK
10
109.594
20
-112.678
11
109.459
21
-112.756
0
LINE
8
BLACK
10
109.459
20
-112.756
11
109.305
21
-112.783
0
LINE
8
BLACK
10
109.305
20
-112.783
11
107.695
21
-112.783
0
LINE
8
BLACK
10
107.695
20
-112.783
11
107.541
21
-112.756
0
LINE
8
BLACK
10
107.541
20
-112.756
11
107.406
21
-112.678
0
LINE
8
BLACK
10
107.406
20
-112.678
11
107.306
21
-112.558
0
LINE
8
BLACK
10
107.306
20
-112.558
11
107.252
21
-112.411
0
LINE
8
BLACK
10
107.252
20
-112.411
11
107.252
21
-112.255
0
LINE
8
BLACK
10
107.252
20
-112.255
11
107.306
21
-112.108
0
LINE
8
BLACK
10
107.306
20
-112.108
11
107.406
21
-111.988
0
LINE
8
BLACK
10
107.406
20
-111.988
11
107.541
21
-111.91
0
LINE
8
BLACK
10
107.541
20
-111.91
11
107.695
21
-111.883
0
LINE
8
BLACK
10
107.695
20
-111.883
11
109.305
21
-111.883
0
LINE
8
BLACK
10
109.305
20
-111.883
11
109.459
21
-111.91
0
LINE
8
BLACK
10
106.375
20
-112.15
11
105.625
21
-112.15
0
LINE
8
BLACK
10
105.625
20
-112.15
11
105.625
21
-111.35
0
LINE
8
BLACK
10
105.625
20
-111.35
11
106.375
21
-111.35
0
LINE
8
BLACK
10
106.375
20
-111.35
11
106.375
21
-112.15
0
LINE
8
BLACK
10
109.459
20
-110.64
11
109.594
21
-110.718
0
LINE
8
BLACK
10
109.594
20
-110.718
11
109.694
21
-110.838
0
LINE
8
BLACK
10
109.694
20
-110.838
11
109.748
21
-110.985
0
LINE
8
BLACK
10
109.748
20
-110.985
11
109.748
21
-111.141
0
LINE
8
BLACK
10
109.748
20
-111.141
11
109.694
21
-111.288
0
LINE
8
BLACK
10
109.694
20
-111.288
11
109.594
21
-111.408
0
LINE
8
BLACK
10
109.594
20
-111.408
11
109.459
21
-111.486
0
LINE
8
BLACK
10
109.459
20
-111.486
11
109.305
21
-111.513
0
LINE
8
BLACK
10
109.305
20
-111.513
11
107.695
21
-111.513
0
LINE
8
BLACK
10
107.695
20
-111.513
11
107.541
21
-111.486
0
LINE
8
BLACK
10
107.541
20
-111.486
11
107.406
21
-111.408
0
LINE
8
BLACK
10
107.406
20
-111.408
11
107.306
21
-111.288
0
LINE
8
BLACK
10
107.306
20
-111.288
11
107.252
21
-111.141
0
LINE
8
BLACK
10
107.252
20
-111.141
11
107.252
21
-110.985
0
LINE
8
BLACK
10
107.252
20
-110.985
11
107.306
21
-110.838
0
LINE
8
BLACK
10
107.306
20
-110.838
11
107.406
21
-110.718
0
LINE
8
BLACK
10
107.406
20
-110.718
11
107.541
21
-110.64
0
LINE
8
BLACK
10
107.541
20
-110.64
11
107.695
21
-110.613
0
LINE
8
BLACK
10
107.695
20
-110.613
11
109.305
21
-110.613
0
LINE
8
BLACK
10
109.305
20
-110.613
11
109.459
21
-110.64
0
LINE
8
BLACK
10
127.459
20
-110.64
11
127.594
21
-110.718
0
LINE
8
BLACK
10
127.594
20
-110.718
11
127.694
21
-110.838
0
LINE
8
BLACK
10
127.694
20
-110.838
11
127.748
21
-110.985
0
LINE
8
BLACK
10
127.748
20
-110.985
11
127.748
21
-111.141
0
LINE
8
BLACK
10
127.748
20
-111.141
11
127.694
21
-111.288
0
LINE
8
BLACK
10
127.694
20
-111.288
11
127.594
21
-111.408
0
LINE
8
BLACK
10
127.594
20
-111.408
11
127.459
21
-111.486
0
LINE
8
BLACK
10
127.459
20
-111.486
11
127.305
21
-111.513
0
LINE
8
BLACK
10
127.305
20
-111.513
11
125.695
21
-111.513
0
LINE
8
BLACK
10
125.695
20
-111.513
11
125.541
21
-111.486
0
LINE
8
BLACK
10
125.541
20
-111.486
11
125.406
21
-111.408
0
LINE
8
BLACK
10
125.406
20
-111.408
11
125.306
21
-111.288
0
LINE
8
BLACK
10
125.306
20
-111.288
11
125.252
21
-111.141
0
LINE
8
BLACK
10
125.252
20
-111.141
11
125.252
21
-110.985
0
LINE
8
BLACK
10
125.252
20
-110.985
11
125.306
21
-110.838
0
LINE
8
BLACK
10
125.306
20
-110.838
11
125.406
21
-110.718
0
LINE
8
BLACK
10
125.406
20
-110.718
11
125.541
21
-110.64
0
LINE
8
BLACK
10
125.541
20
-110.64
11
125.695
21
-110.613
0
LINE
8
BLACK
10
125.695
20
-110.613
11
127.305
21
-110.613
0
LINE
8
BLACK
10
127.305
20
-110.613
11
127.459
21
-110.64
0
LINE
8
BLACK
10
106.375
20
-110.65
11
105.625
21
-110.65
0
LINE
8
BLACK
10
105.625
20
-110.65
11
105.625
21
-109.85
0
LINE
8
BLACK
10
105.625
20
-109.85
11
106.375
21
-109.85
0
LINE
8
BLACK
10
106.375
20
-109.85
11
106.375
21
-110.65
0
LINE
8
BLACK
10
127.459
20
-109.37
11
127.594
21
-109.448
0
LINE
8
BLACK
10
127.594
20
-109.448
11
127.694
21
-109.568
0
LINE
8
BLACK
10
127.694
20
-109.568
11
127.748
21
-109.715
0
LINE
8
BLACK
10
127.748
20
-109.715
11
127.748
21
-109.871
0
LINE
8
BLACK
10
127.748
20
-109.871
11
127.694
21
-110.018
0
LINE
8
BLACK
10
127.694
20
-110.018
11
127.594
21
-110.138
0
LINE
8
BLACK
10
127.594
20
-110.138
11
127.459
21
-110.216
0
LINE
8
BLACK
10
127.459
20
-110.216
11
127.305
21
-110.243
0
LINE
8
BLACK
10
127.305
20
-110.243
11
125.695
21
-110.243
0
LINE
8
BLACK
10
125.695
20
-110.243
11
125.541
21
-110.216
0
LINE
8
BLACK
10
125.541
20
-110.216
11
125.406
21
-110.138
0
LINE
8
BLACK
10
125.406
20
-110.138
11
125.306
21
-110.018
0
LINE
8
BLACK
10
125.306
20
-110.018
11
125.252
21
-109.871
0
LINE
8
BLACK
10
125.252
20
-109.871
11
125.252
21
-109.715
0
LINE
8
BLACK
10
125.252
20
-109.715
11
125.306
21
-109.568
0
LINE
8
BLACK
10
125.306
20
-109.568
11
125.406
21
-109.448
0
LINE
8
BLACK
10
125.406
20
-109.448
11
125.541
21
-109.37
0
LINE
8
BLACK
10
125.541
20
-109.37
11
125.695
21
-109.343
0
LINE
8
BLACK
10
125.695
20
-109.343
11
127.305
21
-109.343
0
LINE
8
BLACK
10
127.305
20
-109.343
11
127.459
21
-109.37
0
LINE
8
BLACK
10
109.459
20
-109.37
11
109.594
21
-109.448
0
LINE
8
BLACK
10
109.594
20
-109.448
11
109.694
21
-109.568
0
LINE
8
BLACK
10
109.694
20
-109.568
11
109.748
21
-109.715
0
LINE
8
BLACK
10
109.748
20
-109.715
11
109.748
21
-109.871
0
LINE
8
BLACK
10
109.748
20
-109.871
11
109.694
21
-110.018
0
LINE
8
BLACK
10
109.694
20
-110.018
11
109.594
21
-110.138
0
LINE
8
BLACK
10
109.594
20
-110.138
11
109.459
21
-110.216
0
LINE
8
BLACK
10
109.459
20
-110.216
11
109.305
21
-110.243
0
LINE
8
BLACK
10
109.305
20
-110.243
11
107.695
21
-110.243
0
LINE
8
BLACK
10
107.695
20
-110.243
11
107.541
21
-110.216
0
LINE
8
BLACK
10
107.541
20
-110.216
11
107.406
21
-110.138
0
LINE
8
BLACK
10
107.406
20
-110.138
11
107.306
21
-110.018
0
LINE
8
BLACK
10
107.306
20
-110.018
11
107.252
21
-109.871
0
LINE
8
BLACK
10
107.252
20
-109.871
11
107.252
21
-109.715
0
LINE
8
BLACK
10
107.252
20
-109.715
11
107.306
21
-109.568
0
LINE
8
BLACK
10
107.306
20
-109.568
11
107.406
21
-109.448
0
LINE
8
BLACK
10
107.406
20
-109.448
11
107.541
21
-109.37
0
LINE
8
BLACK
10
107.541
20
-109.37
11
107.695
21
-109.343
0
LINE
8
BLACK
10
107.695
20
-109.343
11
109.305
21
-109.343
0
LINE
8
BLACK
10
109.305
20
-109.343
11
109.459
21
-109.37
0
LINE
8
BLACK
10
106.625
20
-108.5
11
105.375
21
-108.5
0
LINE
8
BLACK
10
105.375
20
-108.5
11
105.375
21
-107.5
0
LINE
8
BLACK
10
105.375
20
-107.5
11
106.625
21
-107.5
0
LINE
8
BLACK
10
106.625
20
-107.5
11
106.625
21
-108.5
0
LINE
8
BLACK
10
106.625
20
-106.5
11
105.375
21
-106.5
0
LINE
8
BLACK
10
105.375
20
-106.5
11
105.375
21
-105.5
0
LINE
8
BLACK
10
105.375
20
-105.5
11
106.625
21
-105.5
0
LINE
8
BLACK
10
106.625
20
-105.5
11
106.625
21
-106.5
  0
ENDSEC
  0
EOF
