M48
;DRILL file {KiCad (2017-08-16 revision 90873a101)-master} date Wed Dec 27 22:47:28 2017
;FORMAT={-:-/ absolute / inch / decimal}
FMAT,2
INCH,TZ
T1C0.016
T2C0.039
%
G90
G05
M72
T1
X4.19Y-4.8346
X4.2047Y-4.5827
X4.294Y-4.9083
X4.3386Y-4.4409
X4.3386Y-4.9616
X4.3465Y-5.1024
X4.3632Y-4.7165
X4.374Y-5.2756
X4.4094Y-5.4409
X4.4567Y-5.0945
X4.4685Y-5.2717
X4.6142Y-4.624
X4.7244Y-5.315
X4.7471Y-5.2474
X4.7717Y-4.5669
X4.7874Y-4.4488
X4.7874Y-4.9528
X4.7992Y-4.6339
X4.811Y-5.378
X4.8346Y-4.4488
X4.8346Y-5.1417
X4.8661Y-4.5512
X4.9055Y-4.4803
X4.9055Y-5.2677
X4.9528Y-5.2677
X5.0069Y-5.1496
T2
X4.252Y-5.315
X4.252Y-5.415
X4.6425Y-5.4331
X4.7425Y-5.4331
X4.8425Y-5.4331
T0
M30
