G04 #@! TF.GenerationSoftware,KiCad,Pcbnew,(2017-08-16 revision 90873a101)-master*
G04 #@! TF.CreationDate,2017-12-27T22:47:25+02:00*
G04 #@! TF.ProjectId,esp-environment-sensors,6573702D656E7669726F6E6D656E742D,rev?*
G04 #@! TF.SameCoordinates,Original*
G04 #@! TF.FileFunction,Legend,Bot*
G04 #@! TF.FilePolarity,Positive*
%FSLAX46Y46*%
G04 Gerber Fmt 4.6, Leading zero omitted, Abs format (unit mm)*
G04 Created by KiCad (PCBNEW (2017-08-16 revision 90873a101)-master) date Wed Dec 27 22:47:25 2017*
%MOMM*%
%LPD*%
G01*
G04 APERTURE LIST*
%ADD10C,0.300000*%
%ADD11C,0.150000*%
G04 APERTURE END LIST*
D10*
X105821428Y-111035714D02*
X106535714Y-111535714D01*
X105821428Y-111892857D02*
X107321428Y-111892857D01*
X107321428Y-111321428D01*
X107250000Y-111178571D01*
X107178571Y-111107142D01*
X107035714Y-111035714D01*
X106821428Y-111035714D01*
X106678571Y-111107142D01*
X106607142Y-111178571D01*
X106535714Y-111321428D01*
X106535714Y-111892857D01*
X107321428Y-110607142D02*
X105821428Y-110107142D01*
X107321428Y-109607142D01*
X107178571Y-109178571D02*
X107250000Y-109107142D01*
X107321428Y-108964285D01*
X107321428Y-108607142D01*
X107250000Y-108464285D01*
X107178571Y-108392857D01*
X107035714Y-108321428D01*
X106892857Y-108321428D01*
X106678571Y-108392857D01*
X105821428Y-109250000D01*
X105821428Y-108321428D01*
X107321428Y-107392857D02*
X107321428Y-107250000D01*
X107250000Y-107107142D01*
X107178571Y-107035714D01*
X107035714Y-106964285D01*
X106750000Y-106892857D01*
X106392857Y-106892857D01*
X106107142Y-106964285D01*
X105964285Y-107035714D01*
X105892857Y-107107142D01*
X105821428Y-107250000D01*
X105821428Y-107392857D01*
X105892857Y-107535714D01*
X105964285Y-107607142D01*
X106107142Y-107678571D01*
X106392857Y-107750000D01*
X106750000Y-107750000D01*
X107035714Y-107678571D01*
X107178571Y-107607142D01*
X107250000Y-107535714D01*
X107321428Y-107392857D01*
X105821428Y-105464285D02*
X105821428Y-106321428D01*
X105821428Y-105892857D02*
X107321428Y-105892857D01*
X107107142Y-106035714D01*
X106964285Y-106178571D01*
X106892857Y-106321428D01*
X107321428Y-104964285D02*
X107321428Y-103964285D01*
X105821428Y-104607142D01*
X126907142Y-119964285D02*
X126907142Y-119464285D01*
X126121428Y-119250000D02*
X126121428Y-119964285D01*
X127621428Y-119964285D01*
X127621428Y-119250000D01*
X126192857Y-118678571D02*
X126121428Y-118464285D01*
X126121428Y-118107142D01*
X126192857Y-117964285D01*
X126264285Y-117892857D01*
X126407142Y-117821428D01*
X126550000Y-117821428D01*
X126692857Y-117892857D01*
X126764285Y-117964285D01*
X126835714Y-118107142D01*
X126907142Y-118392857D01*
X126978571Y-118535714D01*
X127050000Y-118607142D01*
X127192857Y-118678571D01*
X127335714Y-118678571D01*
X127478571Y-118607142D01*
X127550000Y-118535714D01*
X127621428Y-118392857D01*
X127621428Y-118035714D01*
X127550000Y-117821428D01*
X126121428Y-117178571D02*
X127621428Y-117178571D01*
X127621428Y-116607142D01*
X127550000Y-116464285D01*
X127478571Y-116392857D01*
X127335714Y-116321428D01*
X127121428Y-116321428D01*
X126978571Y-116392857D01*
X126907142Y-116464285D01*
X126835714Y-116607142D01*
X126835714Y-117178571D01*
X127621428Y-115821428D02*
X127621428Y-114892857D01*
X127050000Y-115392857D01*
X127050000Y-115178571D01*
X126978571Y-115035714D01*
X126907142Y-114964285D01*
X126764285Y-114892857D01*
X126407142Y-114892857D01*
X126264285Y-114964285D01*
X126192857Y-115035714D01*
X126121428Y-115178571D01*
X126121428Y-115607142D01*
X126192857Y-115750000D01*
X126264285Y-115821428D01*
X127478571Y-114321428D02*
X127550000Y-114250000D01*
X127621428Y-114107142D01*
X127621428Y-113750000D01*
X127550000Y-113607142D01*
X127478571Y-113535714D01*
X127335714Y-113464285D01*
X127192857Y-113464285D01*
X126978571Y-113535714D01*
X126121428Y-114392857D01*
X126121428Y-113464285D01*
X123642857Y-120392857D02*
X123571428Y-120178571D01*
X123571428Y-119821428D01*
X123642857Y-119678571D01*
X123714285Y-119607142D01*
X123857142Y-119535714D01*
X124000000Y-119535714D01*
X124142857Y-119607142D01*
X124214285Y-119678571D01*
X124285714Y-119821428D01*
X124357142Y-120107142D01*
X124428571Y-120250000D01*
X124500000Y-120321428D01*
X124642857Y-120392857D01*
X124785714Y-120392857D01*
X124928571Y-120321428D01*
X125000000Y-120250000D01*
X125071428Y-120107142D01*
X125071428Y-119750000D01*
X125000000Y-119535714D01*
X123571428Y-118892857D02*
X124571428Y-118892857D01*
X125071428Y-118892857D02*
X125000000Y-118964285D01*
X124928571Y-118892857D01*
X125000000Y-118821428D01*
X125071428Y-118892857D01*
X124928571Y-118892857D01*
X125071428Y-118321428D02*
X125071428Y-117321428D01*
X123571428Y-117964285D01*
X125071428Y-116464285D02*
X125071428Y-116321428D01*
X125000000Y-116178571D01*
X124928571Y-116107142D01*
X124785714Y-116035714D01*
X124500000Y-115964285D01*
X124142857Y-115964285D01*
X123857142Y-116035714D01*
X123714285Y-116107142D01*
X123642857Y-116178571D01*
X123571428Y-116321428D01*
X123571428Y-116464285D01*
X123642857Y-116607142D01*
X123714285Y-116678571D01*
X123857142Y-116750000D01*
X124142857Y-116821428D01*
X124500000Y-116821428D01*
X124785714Y-116750000D01*
X124928571Y-116678571D01*
X125000000Y-116607142D01*
X125071428Y-116464285D01*
X124928571Y-115392857D02*
X125000000Y-115321428D01*
X125071428Y-115178571D01*
X125071428Y-114821428D01*
X125000000Y-114678571D01*
X124928571Y-114607142D01*
X124785714Y-114535714D01*
X124642857Y-114535714D01*
X124428571Y-114607142D01*
X123571428Y-115464285D01*
X123571428Y-114535714D01*
X123571428Y-113107142D02*
X123571428Y-113964285D01*
X123571428Y-113535714D02*
X125071428Y-113535714D01*
X124857142Y-113678571D01*
X124714285Y-113821428D01*
X124642857Y-113964285D01*
X122521428Y-127607142D02*
X122521428Y-126750000D01*
X121021428Y-127178571D02*
X122521428Y-127178571D01*
X121092857Y-125678571D02*
X121021428Y-125821428D01*
X121021428Y-126107142D01*
X121092857Y-126250000D01*
X121235714Y-126321428D01*
X121807142Y-126321428D01*
X121950000Y-126250000D01*
X122021428Y-126107142D01*
X122021428Y-125821428D01*
X121950000Y-125678571D01*
X121807142Y-125607142D01*
X121664285Y-125607142D01*
X121521428Y-126321428D01*
X121021428Y-124964285D02*
X122021428Y-124964285D01*
X121878571Y-124964285D02*
X121950000Y-124892857D01*
X122021428Y-124750000D01*
X122021428Y-124535714D01*
X121950000Y-124392857D01*
X121807142Y-124321428D01*
X121021428Y-124321428D01*
X121807142Y-124321428D02*
X121950000Y-124250000D01*
X122021428Y-124107142D01*
X122021428Y-123892857D01*
X121950000Y-123750000D01*
X121807142Y-123678571D01*
X121021428Y-123678571D01*
X122021428Y-122964285D02*
X120521428Y-122964285D01*
X121950000Y-122964285D02*
X122021428Y-122821428D01*
X122021428Y-122535714D01*
X121950000Y-122392857D01*
X121878571Y-122321428D01*
X121735714Y-122250000D01*
X121307142Y-122250000D01*
X121164285Y-122321428D01*
X121092857Y-122392857D01*
X121021428Y-122535714D01*
X121021428Y-122821428D01*
X121092857Y-122964285D01*
X121164285Y-121607142D02*
X121092857Y-121535714D01*
X121021428Y-121607142D01*
X121092857Y-121678571D01*
X121164285Y-121607142D01*
X121021428Y-121607142D01*
X122592857Y-119821428D02*
X120664285Y-121107142D01*
X121021428Y-119321428D02*
X122521428Y-119321428D01*
X121021428Y-118678571D02*
X121807142Y-118678571D01*
X121950000Y-118750000D01*
X122021428Y-118892857D01*
X122021428Y-119107142D01*
X121950000Y-119250000D01*
X121878571Y-119321428D01*
X122021428Y-117321428D02*
X121021428Y-117321428D01*
X122021428Y-117964285D02*
X121235714Y-117964285D01*
X121092857Y-117892857D01*
X121021428Y-117750000D01*
X121021428Y-117535714D01*
X121092857Y-117392857D01*
X121164285Y-117321428D01*
X121021428Y-116607142D02*
X122021428Y-116607142D01*
X121878571Y-116607142D02*
X121950000Y-116535714D01*
X122021428Y-116392857D01*
X122021428Y-116178571D01*
X121950000Y-116035714D01*
X121807142Y-115964285D01*
X121021428Y-115964285D01*
X121807142Y-115964285D02*
X121950000Y-115892857D01*
X122021428Y-115750000D01*
X122021428Y-115535714D01*
X121950000Y-115392857D01*
X121807142Y-115321428D01*
X121021428Y-115321428D01*
X121164285Y-114607142D02*
X121092857Y-114535714D01*
X121021428Y-114607142D01*
X121092857Y-114678571D01*
X121164285Y-114607142D01*
X121021428Y-114607142D01*
X121092857Y-112821428D02*
X121021428Y-112678571D01*
X121021428Y-112392857D01*
X121092857Y-112250000D01*
X121235714Y-112178571D01*
X121307142Y-112178571D01*
X121450000Y-112250000D01*
X121521428Y-112392857D01*
X121521428Y-112607142D01*
X121592857Y-112750000D01*
X121735714Y-112821428D01*
X121807142Y-112821428D01*
X121950000Y-112750000D01*
X122021428Y-112607142D01*
X122021428Y-112392857D01*
X121950000Y-112250000D01*
X121092857Y-110964285D02*
X121021428Y-111107142D01*
X121021428Y-111392857D01*
X121092857Y-111535714D01*
X121235714Y-111607142D01*
X121807142Y-111607142D01*
X121950000Y-111535714D01*
X122021428Y-111392857D01*
X122021428Y-111107142D01*
X121950000Y-110964285D01*
X121807142Y-110892857D01*
X121664285Y-110892857D01*
X121521428Y-111607142D01*
X122021428Y-110250000D02*
X121021428Y-110250000D01*
X121878571Y-110250000D02*
X121950000Y-110178571D01*
X122021428Y-110035714D01*
X122021428Y-109821428D01*
X121950000Y-109678571D01*
X121807142Y-109607142D01*
X121021428Y-109607142D01*
X121092857Y-108964285D02*
X121021428Y-108821428D01*
X121021428Y-108535714D01*
X121092857Y-108392857D01*
X121235714Y-108321428D01*
X121307142Y-108321428D01*
X121450000Y-108392857D01*
X121521428Y-108535714D01*
X121521428Y-108750000D01*
X121592857Y-108892857D01*
X121735714Y-108964285D01*
X121807142Y-108964285D01*
X121950000Y-108892857D01*
X122021428Y-108750000D01*
X122021428Y-108535714D01*
X121950000Y-108392857D01*
X121021428Y-107464285D02*
X121092857Y-107607142D01*
X121164285Y-107678571D01*
X121307142Y-107750000D01*
X121735714Y-107750000D01*
X121878571Y-107678571D01*
X121950000Y-107607142D01*
X122021428Y-107464285D01*
X122021428Y-107250000D01*
X121950000Y-107107142D01*
X121878571Y-107035714D01*
X121735714Y-106964285D01*
X121307142Y-106964285D01*
X121164285Y-107035714D01*
X121092857Y-107107142D01*
X121021428Y-107250000D01*
X121021428Y-107464285D01*
X121021428Y-106321428D02*
X122021428Y-106321428D01*
X121735714Y-106321428D02*
X121878571Y-106250000D01*
X121950000Y-106178571D01*
X122021428Y-106035714D01*
X122021428Y-105892857D01*
X123750000Y-135142857D02*
X123821428Y-135285714D01*
X123821428Y-135500000D01*
X123750000Y-135714285D01*
X123607142Y-135857142D01*
X123464285Y-135928571D01*
X123178571Y-136000000D01*
X122964285Y-136000000D01*
X122678571Y-135928571D01*
X122535714Y-135857142D01*
X122392857Y-135714285D01*
X122321428Y-135500000D01*
X122321428Y-135357142D01*
X122392857Y-135142857D01*
X122464285Y-135071428D01*
X122964285Y-135071428D01*
X122964285Y-135357142D01*
X122321428Y-134428571D02*
X123821428Y-134428571D01*
X122321428Y-133571428D01*
X123821428Y-133571428D01*
X122321428Y-132857142D02*
X123821428Y-132857142D01*
X123821428Y-132500000D01*
X123750000Y-132285714D01*
X123607142Y-132142857D01*
X123464285Y-132071428D01*
X123178571Y-132000000D01*
X122964285Y-132000000D01*
X122678571Y-132071428D01*
X122535714Y-132142857D01*
X122392857Y-132285714D01*
X122321428Y-132500000D01*
X122321428Y-132857142D01*
X119821428Y-135000000D02*
X120535714Y-135500000D01*
X119821428Y-135857142D02*
X121321428Y-135857142D01*
X121321428Y-135285714D01*
X121250000Y-135142857D01*
X121178571Y-135071428D01*
X121035714Y-135000000D01*
X120821428Y-135000000D01*
X120678571Y-135071428D01*
X120607142Y-135142857D01*
X120535714Y-135285714D01*
X120535714Y-135857142D01*
X121321428Y-134500000D02*
X119821428Y-133500000D01*
X121321428Y-133500000D02*
X119821428Y-134500000D01*
X118821428Y-135892857D02*
X118821428Y-135035714D01*
X117321428Y-135464285D02*
X118821428Y-135464285D01*
X118821428Y-134678571D02*
X117321428Y-133678571D01*
X118821428Y-133678571D02*
X117321428Y-134678571D01*
X114035714Y-136678571D02*
X113535714Y-138178571D01*
X113035714Y-136678571D01*
X112535714Y-138178571D02*
X112535714Y-137178571D01*
X112535714Y-136678571D02*
X112607142Y-136750000D01*
X112535714Y-136821428D01*
X112464285Y-136750000D01*
X112535714Y-136678571D01*
X112535714Y-136821428D01*
X111821428Y-137178571D02*
X111821428Y-138178571D01*
X111821428Y-137321428D02*
X111750000Y-137250000D01*
X111607142Y-137178571D01*
X111392857Y-137178571D01*
X111250000Y-137250000D01*
X111178571Y-137392857D01*
X111178571Y-138178571D01*
X113142857Y-134250000D02*
X113285714Y-134178571D01*
X113500000Y-134178571D01*
X113714285Y-134250000D01*
X113857142Y-134392857D01*
X113928571Y-134535714D01*
X114000000Y-134821428D01*
X114000000Y-135035714D01*
X113928571Y-135321428D01*
X113857142Y-135464285D01*
X113714285Y-135607142D01*
X113500000Y-135678571D01*
X113357142Y-135678571D01*
X113142857Y-135607142D01*
X113071428Y-135535714D01*
X113071428Y-135035714D01*
X113357142Y-135035714D01*
X112428571Y-135678571D02*
X112428571Y-134178571D01*
X111571428Y-135678571D01*
X111571428Y-134178571D01*
X110857142Y-135678571D02*
X110857142Y-134178571D01*
X110500000Y-134178571D01*
X110285714Y-134250000D01*
X110142857Y-134392857D01*
X110071428Y-134535714D01*
X110000000Y-134821428D01*
X110000000Y-135035714D01*
X110071428Y-135321428D01*
X110142857Y-135464285D01*
X110285714Y-135607142D01*
X110500000Y-135678571D01*
X110857142Y-135678571D01*
D11*
X113666000Y-118540000D02*
G75*
G03X113666000Y-118540000I-127000J0D01*
G01*
X118214095Y-120389380D02*
X118214095Y-119389380D01*
X117833142Y-119389380D01*
X117737904Y-119437000D01*
X117690285Y-119484619D01*
X117642666Y-119579857D01*
X117642666Y-119722714D01*
X117690285Y-119817952D01*
X117737904Y-119865571D01*
X117833142Y-119913190D01*
X118214095Y-119913190D01*
X117261714Y-119484619D02*
X117214095Y-119437000D01*
X117118857Y-119389380D01*
X116880761Y-119389380D01*
X116785523Y-119437000D01*
X116737904Y-119484619D01*
X116690285Y-119579857D01*
X116690285Y-119675095D01*
X116737904Y-119817952D01*
X117309333Y-120389380D01*
X116690285Y-120389380D01*
M02*
