G04 #@! TF.GenerationSoftware,KiCad,Pcbnew,(2017-08-16 revision 90873a101)-master*
G04 #@! TF.CreationDate,2017-12-27T22:47:25+02:00*
G04 #@! TF.ProjectId,esp-environment-sensors,6573702D656E7669726F6E6D656E742D,rev?*
G04 #@! TF.SameCoordinates,Original*
G04 #@! TF.FileFunction,Legend,Top*
G04 #@! TF.FilePolarity,Positive*
%FSLAX46Y46*%
G04 Gerber Fmt 4.6, Leading zero omitted, Abs format (unit mm)*
G04 Created by KiCad (PCBNEW (2017-08-16 revision 90873a101)-master) date Wed Dec 27 22:47:25 2017*
%MOMM*%
%LPD*%
G01*
G04 APERTURE LIST*
%ADD10C,0.500000*%
%ADD11C,0.150000*%
%ADD12C,0.120000*%
G04 APERTURE END LIST*
D10*
X107877981Y-108396000D02*
G75*
G03X107877981Y-108396000I-283981J0D01*
G01*
D11*
X126500000Y-108250000D02*
X108500000Y-108250000D01*
X108500000Y-102250000D02*
X108500000Y-127750000D01*
X126500000Y-102250000D02*
X126500000Y-127750000D01*
X126500000Y-127750000D02*
X108500000Y-127750000D01*
X126500000Y-102250000D02*
X108500000Y-102250000D01*
X124315000Y-133300000D02*
X126365000Y-133300000D01*
X123610000Y-130000000D02*
X126365000Y-130000000D01*
D12*
X111400000Y-134200000D02*
X112100000Y-134200000D01*
X112100000Y-135400000D02*
X111400000Y-135400000D01*
X109600000Y-130650000D02*
X109600000Y-131350000D01*
X108400000Y-131350000D02*
X108400000Y-130650000D01*
X105150000Y-106500000D02*
X105150000Y-107500000D01*
X106850000Y-107500000D02*
X106850000Y-106500000D01*
X105400000Y-111350000D02*
X105400000Y-110650000D01*
X106600000Y-110650000D02*
X106600000Y-111350000D01*
X117400000Y-134400000D02*
X118100000Y-134400000D01*
X118100000Y-135600000D02*
X117400000Y-135600000D01*
X125350000Y-135600000D02*
X124650000Y-135600000D01*
X124650000Y-134400000D02*
X125350000Y-134400000D01*
X105450000Y-119300000D02*
X106550000Y-119300000D01*
X106550000Y-119300000D02*
X106550000Y-117200000D01*
X105450000Y-119300000D02*
X105450000Y-117200000D01*
X106670000Y-136270000D02*
X106670000Y-138870000D01*
X106670000Y-138870000D02*
X109330000Y-138870000D01*
X109330000Y-138870000D02*
X109330000Y-136270000D01*
X109330000Y-136270000D02*
X106670000Y-136270000D01*
X106670000Y-135000000D02*
X106670000Y-133670000D01*
X106670000Y-133670000D02*
X108000000Y-133670000D01*
X119190000Y-139330000D02*
X124330000Y-139330000D01*
X124330000Y-139330000D02*
X124330000Y-136670000D01*
X124330000Y-136670000D02*
X119190000Y-136670000D01*
X119190000Y-136670000D02*
X119190000Y-139330000D01*
X117920000Y-139330000D02*
X116590000Y-139330000D01*
X116590000Y-139330000D02*
X116590000Y-138000000D01*
X112320000Y-138000000D02*
X112320000Y-137000000D01*
X113680000Y-137000000D02*
X113680000Y-138000000D01*
X115680000Y-137000000D02*
X115680000Y-138000000D01*
X114320000Y-138000000D02*
X114320000Y-137000000D01*
X106680000Y-114500000D02*
X106680000Y-115500000D01*
X105320000Y-115500000D02*
X105320000Y-114500000D01*
X126100000Y-129480000D02*
X125100000Y-129480000D01*
X125100000Y-128120000D02*
X126100000Y-128120000D01*
X105320000Y-121500000D02*
X105320000Y-120500000D01*
X106680000Y-120500000D02*
X106680000Y-121500000D01*
X115900000Y-133850000D02*
X115900000Y-133200000D01*
X115900000Y-130150000D02*
X115900000Y-130800000D01*
X122100000Y-130800000D02*
X122100000Y-130150000D01*
X122100000Y-133850000D02*
X122100000Y-133200000D01*
X115900000Y-133850000D02*
X122100000Y-133850000D01*
X122100000Y-130150000D02*
X115900000Y-130150000D01*
X113610000Y-132900000D02*
X113610000Y-131100000D01*
X110390000Y-131100000D02*
X110390000Y-133550000D01*
D11*
X110325000Y-138000000D02*
X110325000Y-137000000D01*
X111675000Y-137000000D02*
X111675000Y-138000000D01*
D12*
X126700000Y-139280000D02*
X125700000Y-139280000D01*
X125700000Y-137920000D02*
X126700000Y-137920000D01*
X126700000Y-137680000D02*
X125700000Y-137680000D01*
X125700000Y-136320000D02*
X126700000Y-136320000D01*
D11*
X124438095Y-106252380D02*
X124438095Y-107061904D01*
X124485714Y-107157142D01*
X124533333Y-107204761D01*
X124628571Y-107252380D01*
X124819047Y-107252380D01*
X124914285Y-107204761D01*
X124961904Y-107157142D01*
X125009523Y-107061904D01*
X125009523Y-106252380D01*
X125438095Y-106347619D02*
X125485714Y-106300000D01*
X125580952Y-106252380D01*
X125819047Y-106252380D01*
X125914285Y-106300000D01*
X125961904Y-106347619D01*
X126009523Y-106442857D01*
X126009523Y-106538095D01*
X125961904Y-106680952D01*
X125390476Y-107252380D01*
X126009523Y-107252380D01*
X110228571Y-106528571D02*
X110561904Y-106528571D01*
X110704761Y-107052380D02*
X110228571Y-107052380D01*
X110228571Y-106052380D01*
X110704761Y-106052380D01*
X111085714Y-107004761D02*
X111180952Y-107052380D01*
X111371428Y-107052380D01*
X111466666Y-107004761D01*
X111514285Y-106909523D01*
X111514285Y-106861904D01*
X111466666Y-106766666D01*
X111371428Y-106719047D01*
X111228571Y-106719047D01*
X111133333Y-106671428D01*
X111085714Y-106576190D01*
X111085714Y-106528571D01*
X111133333Y-106433333D01*
X111228571Y-106385714D01*
X111371428Y-106385714D01*
X111466666Y-106433333D01*
X111942857Y-106385714D02*
X111942857Y-107385714D01*
X111942857Y-106433333D02*
X112038095Y-106385714D01*
X112228571Y-106385714D01*
X112323809Y-106433333D01*
X112371428Y-106480952D01*
X112419047Y-106576190D01*
X112419047Y-106861904D01*
X112371428Y-106957142D01*
X112323809Y-107004761D01*
X112228571Y-107052380D01*
X112038095Y-107052380D01*
X111942857Y-107004761D01*
X112847619Y-107052380D02*
X112847619Y-106385714D01*
X112847619Y-106576190D02*
X112895238Y-106480952D01*
X112942857Y-106433333D01*
X113038095Y-106385714D01*
X113133333Y-106385714D01*
X113847619Y-107004761D02*
X113752380Y-107052380D01*
X113561904Y-107052380D01*
X113466666Y-107004761D01*
X113419047Y-106909523D01*
X113419047Y-106528571D01*
X113466666Y-106433333D01*
X113561904Y-106385714D01*
X113752380Y-106385714D01*
X113847619Y-106433333D01*
X113895238Y-106528571D01*
X113895238Y-106623809D01*
X113419047Y-106719047D01*
X114276190Y-107004761D02*
X114371428Y-107052380D01*
X114561904Y-107052380D01*
X114657142Y-107004761D01*
X114704761Y-106909523D01*
X114704761Y-106861904D01*
X114657142Y-106766666D01*
X114561904Y-106719047D01*
X114419047Y-106719047D01*
X114323809Y-106671428D01*
X114276190Y-106576190D01*
X114276190Y-106528571D01*
X114323809Y-106433333D01*
X114419047Y-106385714D01*
X114561904Y-106385714D01*
X114657142Y-106433333D01*
X115085714Y-107004761D02*
X115180952Y-107052380D01*
X115371428Y-107052380D01*
X115466666Y-107004761D01*
X115514285Y-106909523D01*
X115514285Y-106861904D01*
X115466666Y-106766666D01*
X115371428Y-106719047D01*
X115228571Y-106719047D01*
X115133333Y-106671428D01*
X115085714Y-106576190D01*
X115085714Y-106528571D01*
X115133333Y-106433333D01*
X115228571Y-106385714D01*
X115371428Y-106385714D01*
X115466666Y-106433333D01*
X115942857Y-107052380D02*
X115942857Y-106385714D01*
X115942857Y-106052380D02*
X115895238Y-106100000D01*
X115942857Y-106147619D01*
X115990476Y-106100000D01*
X115942857Y-106052380D01*
X115942857Y-106147619D01*
X116276190Y-106385714D02*
X116657142Y-106385714D01*
X116419047Y-107052380D02*
X116419047Y-106195238D01*
X116466666Y-106100000D01*
X116561904Y-106052380D01*
X116657142Y-106052380D01*
X117704761Y-107004761D02*
X117847619Y-107052380D01*
X118085714Y-107052380D01*
X118180952Y-107004761D01*
X118228571Y-106957142D01*
X118276190Y-106861904D01*
X118276190Y-106766666D01*
X118228571Y-106671428D01*
X118180952Y-106623809D01*
X118085714Y-106576190D01*
X117895238Y-106528571D01*
X117800000Y-106480952D01*
X117752380Y-106433333D01*
X117704761Y-106338095D01*
X117704761Y-106242857D01*
X117752380Y-106147619D01*
X117800000Y-106100000D01*
X117895238Y-106052380D01*
X118133333Y-106052380D01*
X118276190Y-106100000D01*
X118609523Y-106385714D02*
X118847619Y-107052380D01*
X119085714Y-106385714D02*
X118847619Y-107052380D01*
X118752380Y-107290476D01*
X118704761Y-107338095D01*
X118609523Y-107385714D01*
X119419047Y-107004761D02*
X119514285Y-107052380D01*
X119704761Y-107052380D01*
X119800000Y-107004761D01*
X119847619Y-106909523D01*
X119847619Y-106861904D01*
X119800000Y-106766666D01*
X119704761Y-106719047D01*
X119561904Y-106719047D01*
X119466666Y-106671428D01*
X119419047Y-106576190D01*
X119419047Y-106528571D01*
X119466666Y-106433333D01*
X119561904Y-106385714D01*
X119704761Y-106385714D01*
X119800000Y-106433333D01*
X120133333Y-106385714D02*
X120514285Y-106385714D01*
X120276190Y-106052380D02*
X120276190Y-106909523D01*
X120323809Y-107004761D01*
X120419047Y-107052380D01*
X120514285Y-107052380D01*
X121228571Y-107004761D02*
X121133333Y-107052380D01*
X120942857Y-107052380D01*
X120847619Y-107004761D01*
X120800000Y-106909523D01*
X120800000Y-106528571D01*
X120847619Y-106433333D01*
X120942857Y-106385714D01*
X121133333Y-106385714D01*
X121228571Y-106433333D01*
X121276190Y-106528571D01*
X121276190Y-106623809D01*
X120800000Y-106719047D01*
X121704761Y-107052380D02*
X121704761Y-106385714D01*
X121704761Y-106480952D02*
X121752380Y-106433333D01*
X121847619Y-106385714D01*
X121990476Y-106385714D01*
X122085714Y-106433333D01*
X122133333Y-106528571D01*
X122133333Y-107052380D01*
X122133333Y-106528571D02*
X122180952Y-106433333D01*
X122276190Y-106385714D01*
X122419047Y-106385714D01*
X122514285Y-106433333D01*
X122561904Y-106528571D01*
X122561904Y-107052380D01*
X122990476Y-107004761D02*
X123085714Y-107052380D01*
X123276190Y-107052380D01*
X123371428Y-107004761D01*
X123419047Y-106909523D01*
X123419047Y-106861904D01*
X123371428Y-106766666D01*
X123276190Y-106719047D01*
X123133333Y-106719047D01*
X123038095Y-106671428D01*
X122990476Y-106576190D01*
X122990476Y-106528571D01*
X123038095Y-106433333D01*
X123133333Y-106385714D01*
X123276190Y-106385714D01*
X123371428Y-106433333D01*
X111147619Y-104128571D02*
X111480952Y-104128571D01*
X111623809Y-104652380D02*
X111147619Y-104652380D01*
X111147619Y-103652380D01*
X111623809Y-103652380D01*
X112004761Y-104604761D02*
X112147619Y-104652380D01*
X112385714Y-104652380D01*
X112480952Y-104604761D01*
X112528571Y-104557142D01*
X112576190Y-104461904D01*
X112576190Y-104366666D01*
X112528571Y-104271428D01*
X112480952Y-104223809D01*
X112385714Y-104176190D01*
X112195238Y-104128571D01*
X112100000Y-104080952D01*
X112052380Y-104033333D01*
X112004761Y-103938095D01*
X112004761Y-103842857D01*
X112052380Y-103747619D01*
X112100000Y-103700000D01*
X112195238Y-103652380D01*
X112433333Y-103652380D01*
X112576190Y-103700000D01*
X113004761Y-104652380D02*
X113004761Y-103652380D01*
X113385714Y-103652380D01*
X113480952Y-103700000D01*
X113528571Y-103747619D01*
X113576190Y-103842857D01*
X113576190Y-103985714D01*
X113528571Y-104080952D01*
X113480952Y-104128571D01*
X113385714Y-104176190D01*
X113004761Y-104176190D01*
X113909523Y-103652380D02*
X114528571Y-103652380D01*
X114195238Y-104033333D01*
X114338095Y-104033333D01*
X114433333Y-104080952D01*
X114480952Y-104128571D01*
X114528571Y-104223809D01*
X114528571Y-104461904D01*
X114480952Y-104557142D01*
X114433333Y-104604761D01*
X114338095Y-104652380D01*
X114052380Y-104652380D01*
X113957142Y-104604761D01*
X113909523Y-104557142D01*
X114909523Y-103747619D02*
X114957142Y-103700000D01*
X115052380Y-103652380D01*
X115290476Y-103652380D01*
X115385714Y-103700000D01*
X115433333Y-103747619D01*
X115480952Y-103842857D01*
X115480952Y-103938095D01*
X115433333Y-104080952D01*
X114861904Y-104652380D01*
X115480952Y-104652380D01*
X115909523Y-104271428D02*
X116671428Y-104271428D01*
X117052380Y-103652380D02*
X117290476Y-104652380D01*
X117480952Y-103938095D01*
X117671428Y-104652380D01*
X117909523Y-103652380D01*
X118861904Y-104652380D02*
X118528571Y-104176190D01*
X118290476Y-104652380D02*
X118290476Y-103652380D01*
X118671428Y-103652380D01*
X118766666Y-103700000D01*
X118814285Y-103747619D01*
X118861904Y-103842857D01*
X118861904Y-103985714D01*
X118814285Y-104080952D01*
X118766666Y-104128571D01*
X118671428Y-104176190D01*
X118290476Y-104176190D01*
X119480952Y-103652380D02*
X119671428Y-103652380D01*
X119766666Y-103700000D01*
X119861904Y-103795238D01*
X119909523Y-103985714D01*
X119909523Y-104319047D01*
X119861904Y-104509523D01*
X119766666Y-104604761D01*
X119671428Y-104652380D01*
X119480952Y-104652380D01*
X119385714Y-104604761D01*
X119290476Y-104509523D01*
X119242857Y-104319047D01*
X119242857Y-103985714D01*
X119290476Y-103795238D01*
X119385714Y-103700000D01*
X119480952Y-103652380D01*
X120528571Y-103652380D02*
X120719047Y-103652380D01*
X120814285Y-103700000D01*
X120909523Y-103795238D01*
X120957142Y-103985714D01*
X120957142Y-104319047D01*
X120909523Y-104509523D01*
X120814285Y-104604761D01*
X120719047Y-104652380D01*
X120528571Y-104652380D01*
X120433333Y-104604761D01*
X120338095Y-104509523D01*
X120290476Y-104319047D01*
X120290476Y-103985714D01*
X120338095Y-103795238D01*
X120433333Y-103700000D01*
X120528571Y-103652380D01*
X121385714Y-104652380D02*
X121385714Y-103652380D01*
X121719047Y-104366666D01*
X122052380Y-103652380D01*
X122052380Y-104652380D01*
X127452380Y-132761904D02*
X128261904Y-132761904D01*
X128357142Y-132714285D01*
X128404761Y-132666666D01*
X128452380Y-132571428D01*
X128452380Y-132380952D01*
X128404761Y-132285714D01*
X128357142Y-132238095D01*
X128261904Y-132190476D01*
X127452380Y-132190476D01*
X127452380Y-131809523D02*
X127452380Y-131190476D01*
X127833333Y-131523809D01*
X127833333Y-131380952D01*
X127880952Y-131285714D01*
X127928571Y-131238095D01*
X128023809Y-131190476D01*
X128261904Y-131190476D01*
X128357142Y-131238095D01*
X128404761Y-131285714D01*
X128452380Y-131380952D01*
X128452380Y-131666666D01*
X128404761Y-131761904D01*
X128357142Y-131809523D01*
X111583333Y-133657142D02*
X111535714Y-133704761D01*
X111392857Y-133752380D01*
X111297619Y-133752380D01*
X111154761Y-133704761D01*
X111059523Y-133609523D01*
X111011904Y-133514285D01*
X110964285Y-133323809D01*
X110964285Y-133180952D01*
X111011904Y-132990476D01*
X111059523Y-132895238D01*
X111154761Y-132800000D01*
X111297619Y-132752380D01*
X111392857Y-132752380D01*
X111535714Y-132800000D01*
X111583333Y-132847619D01*
X112535714Y-133752380D02*
X111964285Y-133752380D01*
X112250000Y-133752380D02*
X112250000Y-132752380D01*
X112154761Y-132895238D01*
X112059523Y-132990476D01*
X111964285Y-133038095D01*
X107957142Y-130966666D02*
X108004761Y-131014285D01*
X108052380Y-131157142D01*
X108052380Y-131252380D01*
X108004761Y-131395238D01*
X107909523Y-131490476D01*
X107814285Y-131538095D01*
X107623809Y-131585714D01*
X107480952Y-131585714D01*
X107290476Y-131538095D01*
X107195238Y-131490476D01*
X107100000Y-131395238D01*
X107052380Y-131252380D01*
X107052380Y-131157142D01*
X107100000Y-131014285D01*
X107147619Y-130966666D01*
X107147619Y-130585714D02*
X107100000Y-130538095D01*
X107052380Y-130442857D01*
X107052380Y-130204761D01*
X107100000Y-130109523D01*
X107147619Y-130061904D01*
X107242857Y-130014285D01*
X107338095Y-130014285D01*
X107480952Y-130061904D01*
X108052380Y-130633333D01*
X108052380Y-130014285D01*
X106357142Y-104366666D02*
X106404761Y-104414285D01*
X106452380Y-104557142D01*
X106452380Y-104652380D01*
X106404761Y-104795238D01*
X106309523Y-104890476D01*
X106214285Y-104938095D01*
X106023809Y-104985714D01*
X105880952Y-104985714D01*
X105690476Y-104938095D01*
X105595238Y-104890476D01*
X105500000Y-104795238D01*
X105452380Y-104652380D01*
X105452380Y-104557142D01*
X105500000Y-104414285D01*
X105547619Y-104366666D01*
X105452380Y-104033333D02*
X105452380Y-103414285D01*
X105833333Y-103747619D01*
X105833333Y-103604761D01*
X105880952Y-103509523D01*
X105928571Y-103461904D01*
X106023809Y-103414285D01*
X106261904Y-103414285D01*
X106357142Y-103461904D01*
X106404761Y-103509523D01*
X106452380Y-103604761D01*
X106452380Y-103890476D01*
X106404761Y-103985714D01*
X106357142Y-104033333D01*
X105157142Y-111166666D02*
X105204761Y-111214285D01*
X105252380Y-111357142D01*
X105252380Y-111452380D01*
X105204761Y-111595238D01*
X105109523Y-111690476D01*
X105014285Y-111738095D01*
X104823809Y-111785714D01*
X104680952Y-111785714D01*
X104490476Y-111738095D01*
X104395238Y-111690476D01*
X104300000Y-111595238D01*
X104252380Y-111452380D01*
X104252380Y-111357142D01*
X104300000Y-111214285D01*
X104347619Y-111166666D01*
X104585714Y-110309523D02*
X105252380Y-110309523D01*
X104204761Y-110547619D02*
X104919047Y-110785714D01*
X104919047Y-110166666D01*
X120233333Y-135357142D02*
X120185714Y-135404761D01*
X120042857Y-135452380D01*
X119947619Y-135452380D01*
X119804761Y-135404761D01*
X119709523Y-135309523D01*
X119661904Y-135214285D01*
X119614285Y-135023809D01*
X119614285Y-134880952D01*
X119661904Y-134690476D01*
X119709523Y-134595238D01*
X119804761Y-134500000D01*
X119947619Y-134452380D01*
X120042857Y-134452380D01*
X120185714Y-134500000D01*
X120233333Y-134547619D01*
X121138095Y-134452380D02*
X120661904Y-134452380D01*
X120614285Y-134928571D01*
X120661904Y-134880952D01*
X120757142Y-134833333D01*
X120995238Y-134833333D01*
X121090476Y-134880952D01*
X121138095Y-134928571D01*
X121185714Y-135023809D01*
X121185714Y-135261904D01*
X121138095Y-135357142D01*
X121090476Y-135404761D01*
X120995238Y-135452380D01*
X120757142Y-135452380D01*
X120661904Y-135404761D01*
X120614285Y-135357142D01*
X127233333Y-134957142D02*
X127185714Y-135004761D01*
X127042857Y-135052380D01*
X126947619Y-135052380D01*
X126804761Y-135004761D01*
X126709523Y-134909523D01*
X126661904Y-134814285D01*
X126614285Y-134623809D01*
X126614285Y-134480952D01*
X126661904Y-134290476D01*
X126709523Y-134195238D01*
X126804761Y-134100000D01*
X126947619Y-134052380D01*
X127042857Y-134052380D01*
X127185714Y-134100000D01*
X127233333Y-134147619D01*
X128090476Y-134052380D02*
X127900000Y-134052380D01*
X127804761Y-134100000D01*
X127757142Y-134147619D01*
X127661904Y-134290476D01*
X127614285Y-134480952D01*
X127614285Y-134861904D01*
X127661904Y-134957142D01*
X127709523Y-135004761D01*
X127804761Y-135052380D01*
X127995238Y-135052380D01*
X128090476Y-135004761D01*
X128138095Y-134957142D01*
X128185714Y-134861904D01*
X128185714Y-134623809D01*
X128138095Y-134528571D01*
X128090476Y-134480952D01*
X127995238Y-134433333D01*
X127804761Y-134433333D01*
X127709523Y-134480952D01*
X127661904Y-134528571D01*
X127614285Y-134623809D01*
X105252380Y-118738095D02*
X104252380Y-118738095D01*
X104252380Y-118500000D01*
X104300000Y-118357142D01*
X104395238Y-118261904D01*
X104490476Y-118214285D01*
X104680952Y-118166666D01*
X104823809Y-118166666D01*
X105014285Y-118214285D01*
X105109523Y-118261904D01*
X105204761Y-118357142D01*
X105252380Y-118500000D01*
X105252380Y-118738095D01*
X105252380Y-117214285D02*
X105252380Y-117785714D01*
X105252380Y-117500000D02*
X104252380Y-117500000D01*
X104395238Y-117595238D01*
X104490476Y-117690476D01*
X104538095Y-117785714D01*
X106461904Y-133052380D02*
X106461904Y-132052380D01*
X106842857Y-132052380D01*
X106938095Y-132100000D01*
X106985714Y-132147619D01*
X107033333Y-132242857D01*
X107033333Y-132385714D01*
X106985714Y-132480952D01*
X106938095Y-132528571D01*
X106842857Y-132576190D01*
X106461904Y-132576190D01*
X107985714Y-133052380D02*
X107414285Y-133052380D01*
X107700000Y-133052380D02*
X107700000Y-132052380D01*
X107604761Y-132195238D01*
X107509523Y-132290476D01*
X107414285Y-132338095D01*
X114461904Y-139852380D02*
X114461904Y-138852380D01*
X114842857Y-138852380D01*
X114938095Y-138900000D01*
X114985714Y-138947619D01*
X115033333Y-139042857D01*
X115033333Y-139185714D01*
X114985714Y-139280952D01*
X114938095Y-139328571D01*
X114842857Y-139376190D01*
X114461904Y-139376190D01*
X115366666Y-138852380D02*
X115985714Y-138852380D01*
X115652380Y-139233333D01*
X115795238Y-139233333D01*
X115890476Y-139280952D01*
X115938095Y-139328571D01*
X115985714Y-139423809D01*
X115985714Y-139661904D01*
X115938095Y-139757142D01*
X115890476Y-139804761D01*
X115795238Y-139852380D01*
X115509523Y-139852380D01*
X115414285Y-139804761D01*
X115366666Y-139757142D01*
X112833333Y-139652380D02*
X112500000Y-139176190D01*
X112261904Y-139652380D02*
X112261904Y-138652380D01*
X112642857Y-138652380D01*
X112738095Y-138700000D01*
X112785714Y-138747619D01*
X112833333Y-138842857D01*
X112833333Y-138985714D01*
X112785714Y-139080952D01*
X112738095Y-139128571D01*
X112642857Y-139176190D01*
X112261904Y-139176190D01*
X113785714Y-139652380D02*
X113214285Y-139652380D01*
X113500000Y-139652380D02*
X113500000Y-138652380D01*
X113404761Y-138795238D01*
X113309523Y-138890476D01*
X113214285Y-138938095D01*
X114833333Y-136052380D02*
X114500000Y-135576190D01*
X114261904Y-136052380D02*
X114261904Y-135052380D01*
X114642857Y-135052380D01*
X114738095Y-135100000D01*
X114785714Y-135147619D01*
X114833333Y-135242857D01*
X114833333Y-135385714D01*
X114785714Y-135480952D01*
X114738095Y-135528571D01*
X114642857Y-135576190D01*
X114261904Y-135576190D01*
X115214285Y-135147619D02*
X115261904Y-135100000D01*
X115357142Y-135052380D01*
X115595238Y-135052380D01*
X115690476Y-135100000D01*
X115738095Y-135147619D01*
X115785714Y-135242857D01*
X115785714Y-135338095D01*
X115738095Y-135480952D01*
X115166666Y-136052380D01*
X115785714Y-136052380D01*
X105252380Y-115166666D02*
X104776190Y-115500000D01*
X105252380Y-115738095D02*
X104252380Y-115738095D01*
X104252380Y-115357142D01*
X104300000Y-115261904D01*
X104347619Y-115214285D01*
X104442857Y-115166666D01*
X104585714Y-115166666D01*
X104680952Y-115214285D01*
X104728571Y-115261904D01*
X104776190Y-115357142D01*
X104776190Y-115738095D01*
X104252380Y-114833333D02*
X104252380Y-114214285D01*
X104633333Y-114547619D01*
X104633333Y-114404761D01*
X104680952Y-114309523D01*
X104728571Y-114261904D01*
X104823809Y-114214285D01*
X105061904Y-114214285D01*
X105157142Y-114261904D01*
X105204761Y-114309523D01*
X105252380Y-114404761D01*
X105252380Y-114690476D01*
X105204761Y-114785714D01*
X105157142Y-114833333D01*
X127633333Y-129452380D02*
X127300000Y-128976190D01*
X127061904Y-129452380D02*
X127061904Y-128452380D01*
X127442857Y-128452380D01*
X127538095Y-128500000D01*
X127585714Y-128547619D01*
X127633333Y-128642857D01*
X127633333Y-128785714D01*
X127585714Y-128880952D01*
X127538095Y-128928571D01*
X127442857Y-128976190D01*
X127061904Y-128976190D01*
X128490476Y-128785714D02*
X128490476Y-129452380D01*
X128252380Y-128404761D02*
X128014285Y-129119047D01*
X128633333Y-129119047D01*
X106452380Y-124366666D02*
X105976190Y-124700000D01*
X106452380Y-124938095D02*
X105452380Y-124938095D01*
X105452380Y-124557142D01*
X105500000Y-124461904D01*
X105547619Y-124414285D01*
X105642857Y-124366666D01*
X105785714Y-124366666D01*
X105880952Y-124414285D01*
X105928571Y-124461904D01*
X105976190Y-124557142D01*
X105976190Y-124938095D01*
X105452380Y-123461904D02*
X105452380Y-123938095D01*
X105928571Y-123985714D01*
X105880952Y-123938095D01*
X105833333Y-123842857D01*
X105833333Y-123604761D01*
X105880952Y-123509523D01*
X105928571Y-123461904D01*
X106023809Y-123414285D01*
X106261904Y-123414285D01*
X106357142Y-123461904D01*
X106404761Y-123509523D01*
X106452380Y-123604761D01*
X106452380Y-123842857D01*
X106404761Y-123938095D01*
X106357142Y-123985714D01*
X117666666Y-131804761D02*
X117809523Y-131852380D01*
X118047619Y-131852380D01*
X118142857Y-131804761D01*
X118190476Y-131757142D01*
X118238095Y-131661904D01*
X118238095Y-131566666D01*
X118190476Y-131471428D01*
X118142857Y-131423809D01*
X118047619Y-131376190D01*
X117857142Y-131328571D01*
X117761904Y-131280952D01*
X117714285Y-131233333D01*
X117666666Y-131138095D01*
X117666666Y-131042857D01*
X117714285Y-130947619D01*
X117761904Y-130900000D01*
X117857142Y-130852380D01*
X118095238Y-130852380D01*
X118238095Y-130900000D01*
X118571428Y-130852380D02*
X118809523Y-131852380D01*
X119000000Y-131138095D01*
X119190476Y-131852380D01*
X119428571Y-130852380D01*
X120333333Y-131852380D02*
X119761904Y-131852380D01*
X120047619Y-131852380D02*
X120047619Y-130852380D01*
X119952380Y-130995238D01*
X119857142Y-131090476D01*
X119761904Y-131138095D01*
X113638095Y-129452380D02*
X113638095Y-130261904D01*
X113685714Y-130357142D01*
X113733333Y-130404761D01*
X113828571Y-130452380D01*
X114019047Y-130452380D01*
X114114285Y-130404761D01*
X114161904Y-130357142D01*
X114209523Y-130261904D01*
X114209523Y-129452380D01*
X115209523Y-130452380D02*
X114638095Y-130452380D01*
X114923809Y-130452380D02*
X114923809Y-129452380D01*
X114828571Y-129595238D01*
X114733333Y-129690476D01*
X114638095Y-129738095D01*
X110452380Y-134333333D02*
X111166666Y-134333333D01*
X111309523Y-134380952D01*
X111404761Y-134476190D01*
X111452380Y-134619047D01*
X111452380Y-134714285D01*
X111452380Y-133333333D02*
X111452380Y-133904761D01*
X111452380Y-133619047D02*
X110452380Y-133619047D01*
X110595238Y-133714285D01*
X110690476Y-133809523D01*
X110738095Y-133904761D01*
X128452380Y-136966666D02*
X127976190Y-137300000D01*
X128452380Y-137538095D02*
X127452380Y-137538095D01*
X127452380Y-137157142D01*
X127500000Y-137061904D01*
X127547619Y-137014285D01*
X127642857Y-136966666D01*
X127785714Y-136966666D01*
X127880952Y-137014285D01*
X127928571Y-137061904D01*
X127976190Y-137157142D01*
X127976190Y-137538095D01*
X127452380Y-136109523D02*
X127452380Y-136300000D01*
X127500000Y-136395238D01*
X127547619Y-136442857D01*
X127690476Y-136538095D01*
X127880952Y-136585714D01*
X128261904Y-136585714D01*
X128357142Y-136538095D01*
X128404761Y-136490476D01*
X128452380Y-136395238D01*
X128452380Y-136204761D01*
X128404761Y-136109523D01*
X128357142Y-136061904D01*
X128261904Y-136014285D01*
X128023809Y-136014285D01*
X127928571Y-136061904D01*
X127880952Y-136109523D01*
X127833333Y-136204761D01*
X127833333Y-136395238D01*
X127880952Y-136490476D01*
X127928571Y-136538095D01*
X128023809Y-136585714D01*
X128452380Y-138966666D02*
X127976190Y-139300000D01*
X128452380Y-139538095D02*
X127452380Y-139538095D01*
X127452380Y-139157142D01*
X127500000Y-139061904D01*
X127547619Y-139014285D01*
X127642857Y-138966666D01*
X127785714Y-138966666D01*
X127880952Y-139014285D01*
X127928571Y-139061904D01*
X127976190Y-139157142D01*
X127976190Y-139538095D01*
X127452380Y-138633333D02*
X127452380Y-137966666D01*
X128452380Y-138395238D01*
M02*
